<svg xmlns="http://www.w3.org/2000/svg" xmlns:xlink="http://www.w3.org/1999/xlink" viewBox="0 0 288.97 333.76"><defs><style>.cls-1,.cls-3,.cls-75,.cls-78{fill:none;}.cls-2,.cls-4,.cls-75,.cls-76{stroke:#51a0b7;}.cls-2,.cls-3,.cls-4,.cls-75,.cls-76,.cls-78,.cls-80{stroke-linecap:round;stroke-linejoin:round;}.cls-2,.cls-3,.cls-4,.cls-80{stroke-width:5px;}.cls-2{fill:url(#linear-gradient);}.cls-3,.cls-78,.cls-80{stroke:#2175bc;}.cls-4,.cls-79{fill:#dcdddd;}.cls-5{isolation:isolate;}.cls-6{fill:#185c98;}.cls-7{clip-path:url(#clip-path);}.cls-8{fill:#115288;}.cls-9{fill:#0f5085;}.cls-10{fill:#0e4e82;}.cls-11{fill:#0c4c7f;}.cls-12{fill:#0a497c;}.cls-13{clip-path:url(#clip-path-2);}.cls-14{fill:#12548b;}.cls-15{fill:#14568e;}.cls-16{fill:#155891;}.cls-17{clip-path:url(#clip-path-3);}.cls-18{clip-path:url(#clip-path-4);}.cls-19{clip-path:url(#clip-path-5);}.cls-20{clip-path:url(#clip-path-6);}.cls-21{fill:#206bad;}.cls-22{clip-path:url(#clip-path-7);}.cls-23{clip-path:url(#clip-path-8);}.cls-24{clip-path:url(#clip-path-9);}.cls-25{clip-path:url(#clip-path-10);}.cls-26{clip-path:url(#clip-path-11);}.cls-27{clip-path:url(#clip-path-12);}.cls-28{clip-path:url(#clip-path-13);}.cls-29{clip-path:url(#clip-path-14);}.cls-30{clip-path:url(#clip-path-15);}.cls-31{clip-path:url(#clip-path-16);}.cls-32{clip-path:url(#clip-path-17);}.cls-33{clip-path:url(#clip-path-18);}.cls-34{clip-path:url(#clip-path-19);}.cls-35{clip-path:url(#clip-path-20);}.cls-36{clip-path:url(#clip-path-21);}.cls-37{clip-path:url(#clip-path-22);}.cls-38{clip-path:url(#clip-path-23);}.cls-39{clip-path:url(#clip-path-24);}.cls-40{clip-path:url(#clip-path-25);}.cls-41{clip-path:url(#clip-path-26);}.cls-42{clip-path:url(#clip-path-27);}.cls-43{clip-path:url(#clip-path-28);}.cls-44{clip-path:url(#clip-path-29);}.cls-45{clip-path:url(#clip-path-30);}.cls-46{clip-path:url(#clip-path-31);}.cls-47{clip-path:url(#clip-path-32);}.cls-48{clip-path:url(#clip-path-33);}.cls-49{clip-path:url(#clip-path-34);}.cls-50{clip-path:url(#clip-path-35);}.cls-51{clip-path:url(#clip-path-36);}.cls-52{clip-path:url(#clip-path-37);}.cls-53{clip-path:url(#clip-path-38);}.cls-54{clip-path:url(#clip-path-39);}.cls-55{clip-path:url(#clip-path-40);}.cls-56{clip-path:url(#clip-path-41);}.cls-57{clip-path:url(#clip-path-42);}.cls-58{clip-path:url(#clip-path-43);}.cls-59{clip-path:url(#clip-path-44);}.cls-60{fill:#0a4574;}.cls-61{clip-path:url(#clip-path-45);}.cls-62{fill:#145185;}.cls-63{fill:#134f82;}.cls-64{clip-path:url(#clip-path-46);}.cls-65{fill:#165388;}.cls-66{clip-path:url(#clip-path-47);}.cls-67{fill:#114d7f;}.cls-68{fill:#104b7d;}.cls-69{fill:#0e497a;}.cls-70{fill:#0c4777;}.cls-71{clip-path:url(#clip-path-48);}.cls-72{fill:#2065a2;}.cls-73{clip-path:url(#clip-path-49);}.cls-74{clip-path:url(#clip-path-50);}.cls-75,.cls-76,.cls-78{stroke-width:2px;}.cls-76,.cls-80{fill:#efefef;}.cls-77{fill:#5bbda3;}</style><linearGradient id="linear-gradient" x1="266.31" y1="188.78" x2="416.49" y2="349.02" gradientUnits="userSpaceOnUse"><stop offset="0.22" stop-color="#fffdfe"/><stop offset="0.65" stop-color="#5bbda3"/></linearGradient><clipPath id="clip-path" transform="translate(-138.5 -51.17)"><path class="cls-1" d="M363.44,197.43l.45.25a1.18,1.18,0,0,1,.19.11,1.39,1.39,0,0,1,.62,1.16,1.87,1.87,0,0,1-.63,1.33l-.45-.25a1.86,1.86,0,0,0,.62-1.33,1.39,1.39,0,0,0-.62-1.16Z"/></clipPath><clipPath id="clip-path-2" transform="translate(-138.5 -51.17)"><path class="cls-1" d="M361,200.86l-.45-.25a2.37,2.37,0,0,0,1.46.22,2.86,2.86,0,0,0,1.65-.8l.45.25a2.9,2.9,0,0,1-1.64.8A2.41,2.41,0,0,1,361,200.86Z"/></clipPath><clipPath id="clip-path-3" transform="translate(-138.5 -51.17)"><path class="cls-1" d="M360.51,200.61a1.18,1.18,0,0,1-.19-.11l.46.24.18.12Z"/></clipPath><clipPath id="clip-path-4" transform="translate(-138.5 -51.17)"><path class="cls-1" d="M363.44,197.43l.45.25a2.33,2.33,0,0,0-1.45-.23l-.46-.25A2.38,2.38,0,0,1,363.44,197.43Z"/></clipPath><clipPath id="clip-path-5" transform="translate(-138.5 -51.17)"><path class="cls-1" d="M360.33,198a2.94,2.94,0,0,1,1.65-.81l.4.22.06,0a2.93,2.93,0,0,0-1.65.8,1.93,1.93,0,0,0-.63,1.34,1.36,1.36,0,0,0,.62,1.15l-.46-.24a1.4,1.4,0,0,1-.62-1.16A1.89,1.89,0,0,1,360.33,198Z"/></clipPath><clipPath id="clip-path-6" transform="translate(-138.5 -51.17)"><path class="cls-1" d="M360.46,201.73l-.45-.25-.24-.15a2.22,2.22,0,0,1-1-1.87,3.09,3.09,0,0,1,1-2.14,4,4,0,0,1,2.2-1.08,3.13,3.13,0,0,1,1.95.32l.46.24a3.2,3.2,0,0,0-1.95-.31,4,4,0,0,0-2.21,1.08,3.1,3.1,0,0,0-1,2.14,2.22,2.22,0,0,0,1,1.87Z"/></clipPath><clipPath id="clip-path-7" transform="translate(-138.5 -51.17)"><path class="cls-1" d="M360.93,206l.45.25a1.07,1.07,0,0,1,.21.13,1.65,1.65,0,0,1,.75,1.39,2.3,2.3,0,0,1-.75,1.61l-.46-.25a2.3,2.3,0,0,0,.76-1.61,1.7,1.7,0,0,0-.75-1.39Z"/></clipPath><clipPath id="clip-path-8" transform="translate(-138.5 -51.17)"><path class="cls-1" d="M357.9,210l-.46-.25a2.82,2.82,0,0,0,1.74.28,3.53,3.53,0,0,0,1.95-.95l.46.25a3.53,3.53,0,0,1-1.95.95A2.86,2.86,0,0,1,357.9,210Z"/></clipPath><clipPath id="clip-path-9" transform="translate(-138.5 -51.17)"><path class="cls-1" d="M360.93,206l.45.25a2.76,2.76,0,0,0-1.73-.27l-.46-.25A2.79,2.79,0,0,1,360.93,206Z"/></clipPath><clipPath id="clip-path-10" transform="translate(-138.5 -51.17)"><path class="cls-1" d="M357.24,206.63a3.53,3.53,0,0,1,1.95-.95l.23.12.17.1.06,0a3.48,3.48,0,0,0-1.95.94,2.34,2.34,0,0,0-.75,1.6,1.67,1.67,0,0,0,.74,1.4l.21.13-.46-.25-.2-.12a1.7,1.7,0,0,1-.74-1.4A2.29,2.29,0,0,1,357.24,206.63Z"/></clipPath><clipPath id="clip-path-11" transform="translate(-138.5 -51.17)"><path class="cls-1" d="M357.43,210.88l-.45-.25-.29-.17a2.53,2.53,0,0,1-1.08-2.11,3.4,3.4,0,0,1,1.09-2.4,4.47,4.47,0,0,1,2.49-1.23,3.61,3.61,0,0,1,2.22.35l.45.25a3.57,3.57,0,0,0-2.21-.35,4.37,4.37,0,0,0-2.49,1.23,3.41,3.41,0,0,0-1.1,2.4,2.49,2.49,0,0,0,1.09,2.1A1.67,1.67,0,0,0,357.43,210.88Z"/></clipPath><clipPath id="clip-path-12" transform="translate(-138.5 -51.17)"><path class="cls-1" d="M367.6,253.61l.46.25.16.1a1.28,1.28,0,0,1,.56,1,1.78,1.78,0,0,1-.57,1.2l-.45-.25a1.7,1.7,0,0,0,.56-1.2,1.26,1.26,0,0,0-.56-1Z"/></clipPath><clipPath id="clip-path-13" transform="translate(-138.5 -51.17)"><path class="cls-1" d="M365.37,256.72l-.45-.25a2.21,2.21,0,0,0,1.34.21,2.76,2.76,0,0,0,1.5-.73l.45.25a2.76,2.76,0,0,1-1.5.73A2.23,2.23,0,0,1,365.37,256.72Z"/></clipPath><clipPath id="clip-path-14" transform="translate(-138.5 -51.17)"><path class="cls-1" d="M366.26,253.4a2.21,2.21,0,0,1,1.34.21l.46.25a2.22,2.22,0,0,0-1.34-.21Z"/></clipPath><clipPath id="clip-path-15" transform="translate(-138.5 -51.17)"><path class="cls-1" d="M365.37,256.72l-.45-.25-.16-.1a1.25,1.25,0,0,1-.56-1,1.73,1.73,0,0,1,.57-1.2,2.66,2.66,0,0,1,1.49-.73l.46.25a2.73,2.73,0,0,0-1.5.73,1.72,1.72,0,0,0-.56,1.2,1.25,1.25,0,0,0,.56,1Z"/></clipPath><clipPath id="clip-path-16" transform="translate(-138.5 -51.17)"><path class="cls-1" d="M364.91,257.6l-.45-.25-.25-.15a2.11,2.11,0,0,1-.9-1.74,2.88,2.88,0,0,1,.91-2,3.66,3.66,0,0,1,2-1,2.93,2.93,0,0,1,1.79.29l.46.25a2.83,2.83,0,0,0-1.8-.29,3.67,3.67,0,0,0-2,1,2.88,2.88,0,0,0-.91,2,2.09,2.09,0,0,0,.9,1.74Z"/></clipPath><clipPath id="clip-path-17" transform="translate(-138.5 -51.17)"><path class="cls-1" d="M364.48,245.18l.45.25.21.13a1.68,1.68,0,0,1,.75,1.4,2.36,2.36,0,0,1-.76,1.61l-.45-.25a2.32,2.32,0,0,0,.75-1.61,1.71,1.71,0,0,0-.75-1.4A1.37,1.37,0,0,0,364.48,245.18Z"/></clipPath><clipPath id="clip-path-18" transform="translate(-138.5 -51.17)"><path class="cls-1" d="M361.44,249.24,361,249a2.86,2.86,0,0,0,1.74.27,3.59,3.59,0,0,0,2-1l.45.25a3.56,3.56,0,0,1-1.95,1A2.86,2.86,0,0,1,361.44,249.24Z"/></clipPath><clipPath id="clip-path-19" transform="translate(-138.5 -51.17)"><path class="cls-1" d="M361,249l-.2-.13.45.24.21.13Z"/></clipPath><clipPath id="clip-path-20" transform="translate(-138.5 -51.17)"><path class="cls-1" d="M362.73,244.91a2.91,2.91,0,0,1,1.75.27l.45.25a2.81,2.81,0,0,0-1.75-.27Z"/></clipPath><clipPath id="clip-path-21" transform="translate(-138.5 -51.17)"><path class="cls-1" d="M360.78,248.87a1.66,1.66,0,0,1-.75-1.4l.45.25a1.65,1.65,0,0,0,.75,1.39C361.08,249,360.92,249,360.78,248.87Z"/></clipPath><clipPath id="clip-path-22" transform="translate(-138.5 -51.17)"><path class="cls-1" d="M360.78,245.86a3.46,3.46,0,0,1,2-1l.45.25a3.46,3.46,0,0,0-1.94,1,2.28,2.28,0,0,0-.76,1.61l-.45-.25A2.28,2.28,0,0,1,360.78,245.86Z"/></clipPath><clipPath id="clip-path-23" transform="translate(-138.5 -51.17)"><path class="cls-1" d="M361,250.13l-.45-.25a2.16,2.16,0,0,1-.3-.18,2.51,2.51,0,0,1-1.08-2.11,3.42,3.42,0,0,1,1.09-2.41,4.56,4.56,0,0,1,2.5-1.23,3.5,3.5,0,0,1,2.21.36l.46.24a3.58,3.58,0,0,0-2.21-.35,4.43,4.43,0,0,0-2.5,1.23,3.42,3.42,0,0,0-1.1,2.41,2.49,2.49,0,0,0,1.09,2.1A2.9,2.9,0,0,0,361,250.13Z"/></clipPath><clipPath id="clip-path-24" transform="translate(-138.5 -51.17)"><path class="cls-1" d="M361.69,235.93l.45.25a2.2,2.2,0,0,1,.26.15,2,2,0,0,1,.88,1.65,2.75,2.75,0,0,1-.89,1.9l-.45-.25a2.73,2.73,0,0,0,.88-1.9,2,2,0,0,0-.88-1.64Z"/></clipPath><clipPath id="clip-path-25" transform="translate(-138.5 -51.17)"><path class="cls-1" d="M358.09,240.67l-.45-.25a3.3,3.3,0,0,0,2,.32,4.13,4.13,0,0,0,2.28-1.11l.45.25a4.17,4.17,0,0,1-2.27,1.11A3.4,3.4,0,0,1,358.09,240.67Z"/></clipPath><clipPath id="clip-path-26" transform="translate(-138.5 -51.17)"><path class="cls-1" d="M359.71,235.61a3.26,3.26,0,0,1,2,.32l.45.25a3.18,3.18,0,0,0-2-.32Z"/></clipPath><clipPath id="clip-path-27" transform="translate(-138.5 -51.17)"><path class="cls-1" d="M357.4,236.72a4,4,0,0,1,2.23-1.1l.46.25a4,4,0,0,0-2.23,1.1,2.69,2.69,0,0,0-.89,1.9,2,2,0,0,0,.88,1.65l.24.15-.45-.25-.25-.15a2,2,0,0,1-.87-1.65A2.69,2.69,0,0,1,357.4,236.72Z"/></clipPath><clipPath id="clip-path-28" transform="translate(-138.5 -51.17)"><path class="cls-1" d="M359.63,235.62h0l.46.25h0Z"/></clipPath><clipPath id="clip-path-29" transform="translate(-138.5 -51.17)"><path class="cls-1" d="M359.71,235.61l0,0,.23.12.2.11h0l-.46-.25Z"/></clipPath><clipPath id="clip-path-30" transform="translate(-138.5 -51.17)"><path class="cls-1" d="M357.63,241.55l-.46-.25-.32-.2a2.8,2.8,0,0,1-1.22-2.35,3.87,3.87,0,0,1,1.23-2.71,5,5,0,0,1,2.81-1.39,4,4,0,0,1,2.5.4l.45.25a4,4,0,0,0-2.49-.4,5,5,0,0,0-2.82,1.39,3.93,3.93,0,0,0-1.23,2.7,2.83,2.83,0,0,0,1.22,2.36Z"/></clipPath><clipPath id="clip-path-31" transform="translate(-138.5 -51.17)"><path class="cls-1" d="M359.68,225.46l.46.25.33.21a2.61,2.61,0,0,1,1.15,2.15,3.64,3.64,0,0,1-1.16,2.49l-.46-.25a3.58,3.58,0,0,0,1.16-2.49,2.59,2.59,0,0,0-1.15-2.15A2.66,2.66,0,0,0,359.68,225.46Z"/></clipPath><clipPath id="clip-path-32" transform="translate(-138.5 -51.17)"><path class="cls-1" d="M354.94,231.57l-.46-.25a4.22,4.22,0,0,0,2.6.41,5.21,5.21,0,0,0,2.92-1.42l.46.25a5.24,5.24,0,0,1-2.92,1.42A4.2,4.2,0,0,1,354.94,231.57Z"/></clipPath><clipPath id="clip-path-33" transform="translate(-138.5 -51.17)"><path class="cls-1" d="M354.48,231.32l-.31-.19.46.25a2.32,2.32,0,0,0,.31.19Z"/></clipPath><clipPath id="clip-path-34" transform="translate(-138.5 -51.17)"><path class="cls-1" d="M357.1,225.06a4.15,4.15,0,0,1,2.58.4l.46.25a4.19,4.19,0,0,0-2.59-.4Z"/></clipPath><clipPath id="clip-path-35" transform="translate(-138.5 -51.17)"><path class="cls-1" d="M354.17,231.13A2.58,2.58,0,0,1,353,229l.46.24a2.56,2.56,0,0,0,1.15,2.17Z"/></clipPath><clipPath id="clip-path-36" transform="translate(-138.5 -51.17)"><path class="cls-1" d="M354.18,226.49a5.15,5.15,0,0,1,2.92-1.43l.45.25a5.18,5.18,0,0,0-2.92,1.43,3.52,3.52,0,0,0-1.15,2.47L353,229A3.52,3.52,0,0,1,354.18,226.49Z"/></clipPath><clipPath id="clip-path-37" transform="translate(-138.5 -51.17)"><path class="cls-1" d="M354.46,232.45l-.46-.25a3,3,0,0,1-.38-.24,3.44,3.44,0,0,1-1.49-2.87,4.72,4.72,0,0,1,1.5-3.29,6.24,6.24,0,0,1,3.47-1.7,5,5,0,0,1,3.08.49l.45.25a5,5,0,0,0-3.08-.49,6.24,6.24,0,0,0-3.47,1.7,4.71,4.71,0,0,0-1.49,3.29,3.47,3.47,0,0,0,1.48,2.87A3.14,3.14,0,0,0,354.46,232.45Z"/></clipPath><clipPath id="clip-path-38" transform="translate(-138.5 -51.17)"><path class="cls-1" d="M360,215.26l.45.24.28.17a2.2,2.2,0,0,1,1,1.82,3,3,0,0,1-1,2.1l-.46-.25a3,3,0,0,0,1-2.1,2.18,2.18,0,0,0-1-1.81A2,2,0,0,0,360,215.26Z"/></clipPath><clipPath id="clip-path-39" transform="translate(-138.5 -51.17)"><path class="cls-1" d="M356,220.46l-.45-.25a3.63,3.63,0,0,0,2.22.35,4.42,4.42,0,0,0,2.49-1.22l.46.25a4.52,4.52,0,0,1-2.49,1.22A3.73,3.73,0,0,1,356,220.46Z"/></clipPath><clipPath id="clip-path-40" transform="translate(-138.5 -51.17)"><path class="cls-1" d="M357.77,214.91a3.56,3.56,0,0,1,2.22.35l.45.24a3.6,3.6,0,0,0-2.21-.34Z"/></clipPath><clipPath id="clip-path-41" transform="translate(-138.5 -51.17)"><path class="cls-1" d="M355.27,220a2.19,2.19,0,0,1-1-1.82l.46.24a2.19,2.19,0,0,0,1,1.83l.26.17-.45-.25A1.78,1.78,0,0,1,355.27,220Z"/></clipPath><clipPath id="clip-path-42" transform="translate(-138.5 -51.17)"><path class="cls-1" d="M355.28,216.13a4.45,4.45,0,0,1,2.49-1.22l.46.25a4.54,4.54,0,0,0-2.5,1.21,3.06,3.06,0,0,0-1,2.09l-.46-.24A3,3,0,0,1,355.28,216.13Z"/></clipPath><clipPath id="clip-path-43" transform="translate(-138.5 -51.17)"><path class="cls-1" d="M355.53,221.34l-.45-.25-.36-.22a3,3,0,0,1-1.3-2.53,4.12,4.12,0,0,1,1.31-2.9,5.59,5.59,0,0,1,3-1.5,4.46,4.46,0,0,1,2.71.44l.46.25a4.46,4.46,0,0,0-2.71-.44,5.49,5.49,0,0,0-3,1.5,4.17,4.17,0,0,0-1.32,2.9,3,3,0,0,0,1.31,2.53C355.29,221.2,355.41,221.27,355.53,221.34Z"/></clipPath><clipPath id="clip-path-44" transform="translate(-138.5 -51.17)"><path class="cls-1" d="M375.12,160.55l-.91-.49a.66.66,0,0,1-.23-.21,28.9,28.9,0,0,0-8.82-7.66l.91.5a28.76,28.76,0,0,1,8.82,7.66A.55.55,0,0,0,375.12,160.55Z"/></clipPath><clipPath id="clip-path-45" transform="translate(-138.5 -51.17)"><path class="cls-1" d="M340.46,188.51l-.92-.5a1.63,1.63,0,0,0,.38-.25l.91.5A2,2,0,0,1,340.46,188.51Z"/></clipPath><clipPath id="clip-path-46" transform="translate(-138.5 -51.17)"><path class="cls-1" d="M366.14,150.45l.91.49a23.56,23.56,0,0,0-6.51-2.4,20.3,20.3,0,0,0-7-.38l-.92-.49a20.39,20.39,0,0,1,7,.37A23.25,23.25,0,0,1,366.14,150.45Z"/></clipPath><clipPath id="clip-path-47" transform="translate(-138.5 -51.17)"><path class="cls-1" d="M340.83,188.26l-.91-.5a3.13,3.13,0,0,0,.95-1.33,5.45,5.45,0,0,0,.3-1.94,38.34,38.34,0,0,0-1.14-7,45.38,45.38,0,0,1-1.18-9.48,27.34,27.34,0,0,1,.67-6,25.61,25.61,0,0,1,2.21-6.27,14.94,14.94,0,0,1,7.07-6.95,14.14,14.14,0,0,1,3.82-1.08l.92.49a14.51,14.51,0,0,0-3.83,1.09,14.9,14.9,0,0,0-7.07,6.95,25.72,25.72,0,0,0-2.21,6.26,28,28,0,0,0-.67,6,45.38,45.38,0,0,0,1.18,9.48,38.08,38.08,0,0,1,1.14,7,5.4,5.4,0,0,1-.3,1.93A3.16,3.16,0,0,1,340.83,188.26Z"/></clipPath><clipPath id="clip-path-48" transform="translate(-138.5 -51.17)"><path class="cls-1" d="M310.31,240.09l-.91-.5A.73.73,0,0,1,309,239a95.65,95.65,0,0,1-.72-11.83,94,94,0,0,1,.66-10.92,96.47,96.47,0,0,1,1.72-11.07,15.7,15.7,0,0,1,3.69-7.21c2.51-2.7,6.18-4.47,10.12-5.86s8.2-2.36,11.84-3.26c1-.24,1.75-.4,2.25-.53a3.75,3.75,0,0,0,1-.31l.92.5a4.55,4.55,0,0,1-1,.31l-2.25.53c-3.64.89-7.89,1.87-11.84,3.26s-7.61,3.16-10.12,5.85a15.73,15.73,0,0,0-3.69,7.22,96.55,96.55,0,0,0-1.71,11.06,92.1,92.1,0,0,0-.67,10.93,97.47,97.47,0,0,0,.72,11.82A.77.77,0,0,0,310.31,240.09Z"/></clipPath><clipPath id="clip-path-49" transform="translate(-138.5 -51.17)"><path class="cls-1" d="M332.53,224l.91.5a.71.71,0,0,0-.48-.08l-.91-.5A.77.77,0,0,1,332.53,224Z"/></clipPath><clipPath id="clip-path-50" transform="translate(-138.5 -51.17)"><path class="cls-1" d="M330,253.73l-.91-.5a.82.82,0,0,1-.41-.79c.08-1.5.23-3.92.66-6.88s.91-5,1.31-6.75a35.6,35.6,0,0,0,.93-5.41c.07-.74.12-1.64.12-2.66a31.28,31.28,0,0,0-.48-5.56,1.13,1.13,0,0,1,.72-1.21l.16,0,.91.5-.16,0a1.13,1.13,0,0,0-.71,1.22,31.1,31.1,0,0,1,.47,5.56c0,1-.05,1.92-.11,2.66a36.52,36.52,0,0,1-.93,5.4c-.41,1.8-.89,3.84-1.31,6.76s-.59,5.38-.67,6.88A.85.85,0,0,0,330,253.73Z"/></clipPath></defs><g id="Layer_3" data-name="Layer 3"><path class="cls-2" d="M287.1,119.51c2.77-.25,5.08-.3,6.69-.29h82.35c27,0,48.83,20.25,48.83,45.23V337.2c0,25-21.86,45.23-48.83,45.23H272.79c-27,0-48.83-20.25-48.83-45.23V189.05" transform="translate(-138.5 -51.17)"/><path class="cls-3" d="M267.89,178.2" transform="translate(-138.5 -51.17)"/><path class="cls-4" d="M287.36,119.65c.06,5.45,0,13.18-.55,22.46-.87,14.92-1.36,22.49-4.14,27.34-6.44,11.27-19.59,15-28.76,17.61a73,73,0,0,1-29.95,2Z" transform="translate(-138.5 -51.17)"/></g><g id="Layer_2" data-name="Layer 2"><g id="Layer_1" data-name="Layer 1"><g class="cls-5"><polygon class="cls-6" points="226.2 147.78 225.75 147.53 226.2 147.47 226.65 147.72 226.2 147.78"/><g class="cls-5"><g class="cls-7"><g class="cls-5"><path class="cls-8" d="M364.07,200.28l-.45-.25.12-.13.46.25a1.59,1.59,0,0,1-.13.13" transform="translate(-138.5 -51.17)"/><path class="cls-9" d="M364.2,200.15l-.46-.25.17-.21.45.25-.16.21" transform="translate(-138.5 -51.17)"/><path class="cls-10" d="M364.36,199.94l-.45-.25a2.39,2.39,0,0,0,.13-.21l.45.25a1.2,1.2,0,0,1-.13.21" transform="translate(-138.5 -51.17)"/><path class="cls-11" d="M364.49,199.73l-.45-.25a2.29,2.29,0,0,0,.1-.23l.46.24a2.56,2.56,0,0,1-.11.24" transform="translate(-138.5 -51.17)"/><path class="cls-12" d="M364.6,199.49l-.46-.24a1.52,1.52,0,0,0,.1-.55,1.39,1.39,0,0,0-.62-1.16l-.18-.11.45.25a1.18,1.18,0,0,1,.19.11,1.39,1.39,0,0,1,.62,1.16,1.44,1.44,0,0,1-.1.54" transform="translate(-138.5 -51.17)"/></g></g></g><g class="cls-5"><g class="cls-13"><g class="cls-5"><path class="cls-14" d="M361,200.86l-.45-.25.06,0,.46.25-.07,0" transform="translate(-138.5 -51.17)"/><path class="cls-15" d="M361,200.89l-.46-.25a2.26,2.26,0,0,0,.39.15l.45.24a1.74,1.74,0,0,1-.38-.14" transform="translate(-138.5 -51.17)"/><path class="cls-16" d="M361.41,201l-.45-.24a2.6,2.6,0,0,0,1,0,3,3,0,0,0,.86-.25l.46.25a3,3,0,0,1-.86.25,2.64,2.64,0,0,1-1-.05" transform="translate(-138.5 -51.17)"/><path class="cls-15" d="M363.29,200.83l-.46-.25a2.86,2.86,0,0,0,.42-.24l.45.25a2.33,2.33,0,0,1-.41.24" transform="translate(-138.5 -51.17)"/><path class="cls-14" d="M363.7,200.59l-.45-.25.27-.21.45.24a2,2,0,0,1-.27.22" transform="translate(-138.5 -51.17)"/><path class="cls-8" d="M364,200.37l-.45-.24.1-.1.45.25-.1.09" transform="translate(-138.5 -51.17)"/></g></g></g><g class="cls-5"><g class="cls-17"><g class="cls-5"><path class="cls-12" d="M361,200.86l-.45-.25a1.18,1.18,0,0,1-.19-.11,1.4,1.4,0,0,1-.62-1.16,1.71,1.71,0,0,1,.1-.54l.46.24a1.52,1.52,0,0,0-.1.55,1.36,1.36,0,0,0,.62,1.15l.18.12" transform="translate(-138.5 -51.17)"/></g></g></g><g class="cls-5"><g class="cls-18"><g class="cls-5"><path class="cls-16" d="M362.44,197.45l-.46-.25a2.59,2.59,0,0,1,1,.05l.45.25a2.54,2.54,0,0,0-1-.05" transform="translate(-138.5 -51.17)"/><path class="cls-15" d="M363.44,197.5l-.45-.25a2.46,2.46,0,0,1,.38.14l.46.25a1.64,1.64,0,0,0-.39-.14" transform="translate(-138.5 -51.17)"/><path class="cls-14" d="M363.83,197.64l-.46-.25.07,0,.45.25-.06,0" transform="translate(-138.5 -51.17)"/></g></g></g><g class="cls-5"><g class="cls-19"><g class="cls-5"><path class="cls-12" d="M361,200.86l-.45-.25a1.18,1.18,0,0,1-.19-.11,1.4,1.4,0,0,1-.62-1.16,1.71,1.71,0,0,1,.1-.54l.46.24a1.52,1.52,0,0,0-.1.55,1.36,1.36,0,0,0,.62,1.15l.18.12" transform="translate(-138.5 -51.17)"/><path class="cls-11" d="M360.26,199l-.46-.24a1.89,1.89,0,0,1,.11-.25l.46.25a1.28,1.28,0,0,0-.11.24" transform="translate(-138.5 -51.17)"/><path class="cls-10" d="M360.37,198.8l-.46-.25a2.39,2.39,0,0,1,.13-.21l.46.25a2.39,2.39,0,0,0-.13.21" transform="translate(-138.5 -51.17)"/><path class="cls-9" d="M360.5,198.59l-.46-.25a1.63,1.63,0,0,1,.17-.2l.45.24-.16.21" transform="translate(-138.5 -51.17)"/><path class="cls-8" d="M360.66,198.38l-.45-.24a.74.74,0,0,1,.12-.13.47.47,0,0,1,.1-.1l.45.25-.09.09-.13.13" transform="translate(-138.5 -51.17)"/><path class="cls-14" d="M360.88,198.16l-.45-.25.26-.21.46.25-.27.21" transform="translate(-138.5 -51.17)"/><path class="cls-15" d="M361.15,198l-.46-.25a2.86,2.86,0,0,1,.42-.24l.46.25a2.86,2.86,0,0,0-.42.24" transform="translate(-138.5 -51.17)"/><path class="cls-16" d="M361.57,197.71l-.46-.25a3.51,3.51,0,0,1,.87-.26l.46.25a3,3,0,0,0-.87.26" transform="translate(-138.5 -51.17)"/></g></g></g><g class="cls-5"><g class="cls-20"><g class="cls-5"><path class="cls-12" d="M360.46,201.73l-.45-.25-.24-.15a2.22,2.22,0,0,1-1-1.87,2.63,2.63,0,0,1,.17-.92l.46.25a2.59,2.59,0,0,0-.17.92,2.22,2.22,0,0,0,1,1.87l.23.15" transform="translate(-138.5 -51.17)"/><path class="cls-11" d="M359.44,198.79l-.46-.25a2.87,2.87,0,0,1,.18-.4l.46.25a2.87,2.87,0,0,0-.18.4" transform="translate(-138.5 -51.17)"/><path class="cls-10" d="M359.62,198.39l-.46-.25a3,3,0,0,1,.21-.33l.45.25a3.62,3.62,0,0,0-.2.33" transform="translate(-138.5 -51.17)"/><path class="cls-9" d="M359.82,198.06l-.45-.25a3.65,3.65,0,0,1,.24-.31l.46.24a3.92,3.92,0,0,0-.25.32" transform="translate(-138.5 -51.17)"/><path class="cls-8" d="M360.07,197.74l-.46-.24.17-.18.1-.09.46.24-.11.1-.16.17" transform="translate(-138.5 -51.17)"/><path class="cls-14" d="M360.34,197.47l-.46-.24a4,4,0,0,1,.4-.32l.46.25a4.24,4.24,0,0,0-.4.31" transform="translate(-138.5 -51.17)"/><path class="cls-15" d="M360.74,197.16l-.46-.25a5.3,5.3,0,0,1,.57-.33l.46.25a3.25,3.25,0,0,0-.57.33" transform="translate(-138.5 -51.17)"/><path class="cls-16" d="M361.31,196.83l-.46-.25a4.23,4.23,0,0,1,1.13-.34,3.39,3.39,0,0,1,1.32.07l.46.25a3.4,3.4,0,0,0-1.32-.07,3.9,3.9,0,0,0-1.13.34" transform="translate(-138.5 -51.17)"/><path class="cls-15" d="M363.76,196.56l-.46-.25a2.49,2.49,0,0,1,.54.2l.45.24a2.76,2.76,0,0,0-.53-.19" transform="translate(-138.5 -51.17)"/><path class="cls-14" d="M364.29,196.75l-.45-.24.09.05.46.24-.1-.05" transform="translate(-138.5 -51.17)"/></g></g></g><path class="cls-21" d="M364.63,197a2.23,2.23,0,0,1,1,1.87,3,3,0,0,1-1,2.14,3.9,3.9,0,0,1-2.19,1.08,3.08,3.08,0,0,1-2.2-.46,2.22,2.22,0,0,1-1-1.87,3.1,3.1,0,0,1,1-2.14,4,4,0,0,1,2.21-1.08A3.06,3.06,0,0,1,364.63,197Zm-.56,3.33a1.87,1.87,0,0,0,.63-1.33,1.39,1.39,0,0,0-.62-1.16,2.28,2.28,0,0,0-1.64-.34,2.93,2.93,0,0,0-1.65.8,1.93,1.93,0,0,0-.63,1.34,1.36,1.36,0,0,0,.62,1.15,2.29,2.29,0,0,0,1.65.34,2.9,2.9,0,0,0,1.64-.8" transform="translate(-138.5 -51.17)"/><path class="cls-21" d="M362.44,197.45a2.28,2.28,0,0,1,1.64.34,1.39,1.39,0,0,1,.62,1.16l.45-.06-.45.06a1.87,1.87,0,0,1-.63,1.33,2.9,2.9,0,0,1-1.64.8,2.29,2.29,0,0,1-1.65-.34,1.36,1.36,0,0,1-.62-1.15,1.93,1.93,0,0,1,.63-1.34A2.93,2.93,0,0,1,362.44,197.45Z" transform="translate(-138.5 -51.17)"/></g><g class="cls-5"><polygon class="cls-6" points="223.85 156.55 223.39 156.3 223.83 156.24 224.29 156.49 223.85 156.55"/><g class="cls-5"><g class="cls-22"><g class="cls-5"><path class="cls-8" d="M361.59,209.33l-.46-.25.15-.16.46.25-.15.16" transform="translate(-138.5 -51.17)"/><path class="cls-9" d="M361.74,209.17l-.46-.25a2.43,2.43,0,0,0,.2-.25l.45.25a2.35,2.35,0,0,1-.19.25" transform="translate(-138.5 -51.17)"/><path class="cls-10" d="M361.93,208.92l-.45-.25c.06-.08.11-.17.16-.25l.45.25c0,.08-.1.17-.16.25" transform="translate(-138.5 -51.17)"/><path class="cls-11" d="M362.09,208.67l-.45-.25c.05-.1.09-.19.13-.29l.45.25a2.38,2.38,0,0,1-.13.29" transform="translate(-138.5 -51.17)"/><path class="cls-12" d="M362.22,208.38l-.45-.25a1.92,1.92,0,0,0,.12-.66,1.7,1.7,0,0,0-.75-1.39l-.21-.13.45.25a1.07,1.07,0,0,1,.21.13,1.65,1.65,0,0,1,.75,1.39,1.92,1.92,0,0,1-.12.66" transform="translate(-138.5 -51.17)"/></g></g></g><g class="cls-5"><g class="cls-23"><g class="cls-5"><path class="cls-14" d="M357.9,210l-.46-.25.08.05.46.24-.08,0" transform="translate(-138.5 -51.17)"/><path class="cls-15" d="M358,210l-.46-.24a2.64,2.64,0,0,0,.47.17l.46.25A2.41,2.41,0,0,1,358,210" transform="translate(-138.5 -51.17)"/><path class="cls-16" d="M358.45,210.22,358,210a3.12,3.12,0,0,0,1.19.06,3.37,3.37,0,0,0,1-.31l.46.25a3.89,3.89,0,0,1-1,.31,3.11,3.11,0,0,1-1.19-.06" transform="translate(-138.5 -51.17)"/><path class="cls-15" d="M360.66,210l-.46-.25a4,4,0,0,0,.5-.28l.45.24a3,3,0,0,1-.49.29" transform="translate(-138.5 -51.17)"/><path class="cls-14" d="M361.15,209.68l-.45-.24c.12-.09.23-.17.33-.26l.46.24a2.78,2.78,0,0,1-.34.26" transform="translate(-138.5 -51.17)"/><path class="cls-8" d="M361.49,209.42l-.46-.24.1-.1.46.25-.1.09" transform="translate(-138.5 -51.17)"/></g></g></g><g class="cls-5"><g class="cls-24"><g class="cls-5"><path class="cls-16" d="M359.65,205.93l-.46-.25a2.92,2.92,0,0,1,1.19.06l.46.24a3.12,3.12,0,0,0-1.19,0" transform="translate(-138.5 -51.17)"/><path class="cls-15" d="M360.84,206l-.46-.24a2.38,2.38,0,0,1,.47.17l.45.25a3.14,3.14,0,0,0-.46-.18" transform="translate(-138.5 -51.17)"/><path class="cls-14" d="M361.3,206.16l-.45-.25.08,0,.45.25-.08,0" transform="translate(-138.5 -51.17)"/></g></g></g><path class="cls-21" d="M359.65,205.93a2.7,2.7,0,0,1,1.94.4,1.65,1.65,0,0,1,.75,1.39l.44-.06-.44.06a2.3,2.3,0,0,1-.75,1.61,3.53,3.53,0,0,1-1.95.95,2.78,2.78,0,0,1-1.95-.41,1.67,1.67,0,0,1-.74-1.4,2.34,2.34,0,0,1,.75-1.6A3.48,3.48,0,0,1,359.65,205.93Z" transform="translate(-138.5 -51.17)"/><g class="cls-5"><g class="cls-25"><g class="cls-5"><path class="cls-12" d="M357.9,210l-.46-.25-.2-.12a1.7,1.7,0,0,1-.74-1.4,1.82,1.82,0,0,1,.12-.65l.45.24a1.91,1.91,0,0,0-.12.65,1.67,1.67,0,0,0,.74,1.4l.21.13" transform="translate(-138.5 -51.17)"/><path class="cls-11" d="M357.07,207.82l-.45-.24a1.94,1.94,0,0,1,.13-.3l.45.25c-.05.1-.09.19-.13.29" transform="translate(-138.5 -51.17)"/><path class="cls-10" d="M357.2,207.53l-.45-.25.16-.26.46.25c-.06.09-.12.17-.17.26" transform="translate(-138.5 -51.17)"/><path class="cls-9" d="M357.37,207.27l-.46-.25.2-.25.46.25a1.57,1.57,0,0,0-.2.25" transform="translate(-138.5 -51.17)"/><path class="cls-8" d="M357.57,207l-.46-.25.13-.14.1-.1.46.25-.1.09-.13.15" transform="translate(-138.5 -51.17)"/><path class="cls-14" d="M357.8,206.78l-.46-.25.33-.26.46.25a2.91,2.91,0,0,0-.33.26" transform="translate(-138.5 -51.17)"/><path class="cls-15" d="M358.13,206.52l-.46-.25a4.21,4.21,0,0,1,.51-.29l.45.25a3.45,3.45,0,0,0-.5.29" transform="translate(-138.5 -51.17)"/><path class="cls-16" d="M358.63,206.23l-.45-.25a3.7,3.7,0,0,1,1-.3l.46.25a3.53,3.53,0,0,0-1,.3" transform="translate(-138.5 -51.17)"/></g></g></g><g class="cls-5"><g class="cls-26"><g class="cls-5"><path class="cls-12" d="M357.43,210.88l-.45-.25-.29-.17a2.53,2.53,0,0,1-1.08-2.11,3,3,0,0,1,.19-1l.45.25a3,3,0,0,0-.19,1,2.49,2.49,0,0,0,1.09,2.1,1.67,1.67,0,0,0,.28.18" transform="translate(-138.5 -51.17)"/><path class="cls-11" d="M356.25,207.57l-.45-.25a2.48,2.48,0,0,1,.2-.44l.45.25a3.49,3.49,0,0,0-.2.44" transform="translate(-138.5 -51.17)"/><path class="cls-10" d="M356.45,207.13l-.45-.25a2.77,2.77,0,0,1,.22-.37l.46.25c-.08.12-.16.24-.23.37" transform="translate(-138.5 -51.17)"/><path class="cls-9" d="M356.68,206.76l-.46-.25c.09-.12.17-.23.27-.34l.45.25c-.09.11-.18.22-.26.34" transform="translate(-138.5 -51.17)"/><path class="cls-8" d="M356.94,206.42l-.45-.25.21-.22.14-.13.46.25a.86.86,0,0,0-.14.13,2.28,2.28,0,0,0-.22.22" transform="translate(-138.5 -51.17)"/><path class="cls-14" d="M357.3,206.07l-.46-.25a3.87,3.87,0,0,1,.45-.35l.45.24a4.94,4.94,0,0,0-.44.36" transform="translate(-138.5 -51.17)"/><path class="cls-15" d="M357.74,205.71l-.45-.24a3.68,3.68,0,0,1,.64-.37l.45.25a5,5,0,0,0-.64.36" transform="translate(-138.5 -51.17)"/><path class="cls-16" d="M358.38,205.35l-.45-.25a4.18,4.18,0,0,1,1.26-.38,3.74,3.74,0,0,1,1.5.07l.45.25a3.68,3.68,0,0,0-1.49-.07,4.24,4.24,0,0,0-1.27.38" transform="translate(-138.5 -51.17)"/><path class="cls-15" d="M361.14,205l-.45-.25a3.19,3.19,0,0,1,.61.23l.45.25a3,3,0,0,0-.61-.23" transform="translate(-138.5 -51.17)"/><path class="cls-14" d="M361.75,205.27l-.45-.25.11,0,.45.25-.11,0" transform="translate(-138.5 -51.17)"/></g></g></g><path class="cls-21" d="M362.15,205.5a2.52,2.52,0,0,1,1.08,2.09,3.43,3.43,0,0,1-1.09,2.41,4.51,4.51,0,0,1-2.5,1.24,3.48,3.48,0,0,1-2.49-.54,2.49,2.49,0,0,1-1.09-2.1,3.41,3.41,0,0,1,1.1-2.4,4.37,4.37,0,0,1,2.49-1.23A3.47,3.47,0,0,1,362.15,205.5Zm-.56,3.83a2.3,2.3,0,0,0,.75-1.61,1.65,1.65,0,0,0-.75-1.39,2.7,2.7,0,0,0-1.94-.4,3.48,3.48,0,0,0-1.95.94,2.34,2.34,0,0,0-.75,1.6,1.67,1.67,0,0,0,.74,1.4,2.78,2.78,0,0,0,1.95.41,3.53,3.53,0,0,0,1.95-.95" transform="translate(-138.5 -51.17)"/></g><g class="cls-5"><polygon class="cls-6" points="230.28 203.83 229.82 203.59 230.27 203.52 230.73 203.77 230.28 203.83"/><g class="cls-5"><g class="cls-27"><g class="cls-5"><path class="cls-8" d="M368.21,256.2l-.45-.25.11-.12.45.25-.11.12" transform="translate(-138.5 -51.17)"/><path class="cls-9" d="M368.32,256.08l-.45-.25.14-.18.46.24a.9.9,0,0,1-.15.19" transform="translate(-138.5 -51.17)"/><path class="cls-10" d="M368.47,255.89l-.46-.24a1.45,1.45,0,0,0,.12-.19l.46.24-.12.19" transform="translate(-138.5 -51.17)"/><path class="cls-11" d="M368.59,255.7l-.46-.24.1-.22.46.25a2,2,0,0,1-.1.21" transform="translate(-138.5 -51.17)"/><path class="cls-12" d="M368.69,255.49l-.46-.25a1.37,1.37,0,0,0,.09-.49,1.26,1.26,0,0,0-.56-1l-.16-.1.46.25.16.1a1.28,1.28,0,0,1,.56,1,1.69,1.69,0,0,1-.09.49" transform="translate(-138.5 -51.17)"/></g></g></g><g class="cls-5"><g class="cls-28"><g class="cls-5"><path class="cls-14" d="M365.37,256.72l-.45-.25.06,0,.46.25-.07,0" transform="translate(-138.5 -51.17)"/><path class="cls-15" d="M365.44,256.75l-.46-.25a1.91,1.91,0,0,0,.36.13l.46.25a1.91,1.91,0,0,1-.36-.13" transform="translate(-138.5 -51.17)"/><path class="cls-16" d="M365.8,256.88l-.46-.25a2.48,2.48,0,0,0,1.7-.19l.46.25a2.9,2.9,0,0,1-.79.24,2.46,2.46,0,0,1-.91-.05" transform="translate(-138.5 -51.17)"/><path class="cls-15" d="M367.5,256.69l-.46-.25a1.57,1.57,0,0,0,.38-.22l.46.25a2.88,2.88,0,0,1-.38.22" transform="translate(-138.5 -51.17)"/><path class="cls-14" d="M367.88,256.47l-.46-.25a1.79,1.79,0,0,0,.26-.2l.46.25-.26.2" transform="translate(-138.5 -51.17)"/><path class="cls-8" d="M368.14,256.27l-.46-.25.08-.07.45.25-.07.07" transform="translate(-138.5 -51.17)"/></g></g></g><g class="cls-5"><g class="cls-29"><g class="cls-5"><path class="cls-16" d="M366.72,253.65l-.46-.25a2.14,2.14,0,0,1,.92,0l.45.24a2.28,2.28,0,0,0-.91,0" transform="translate(-138.5 -51.17)"/><path class="cls-15" d="M367.63,253.69l-.45-.24a1.4,1.4,0,0,1,.36.13l.45.25a1.92,1.92,0,0,0-.36-.14" transform="translate(-138.5 -51.17)"/><path class="cls-14" d="M368,253.83l-.45-.25.06,0,.46.25-.07,0" transform="translate(-138.5 -51.17)"/></g></g></g><g class="cls-5"><g class="cls-30"><g class="cls-5"><path class="cls-12" d="M365.37,256.72l-.45-.25-.16-.1a1.25,1.25,0,0,1-.56-1,1.41,1.41,0,0,1,.09-.49l.46.25a1.41,1.41,0,0,0-.09.49,1.25,1.25,0,0,0,.56,1l.15.1" transform="translate(-138.5 -51.17)"/><path class="cls-11" d="M364.75,255.09l-.46-.25a2,2,0,0,1,.1-.21l.46.24-.1.22" transform="translate(-138.5 -51.17)"/><path class="cls-10" d="M364.85,254.87l-.46-.24.12-.2.46.25a1,1,0,0,0-.12.19" transform="translate(-138.5 -51.17)"/><path class="cls-9" d="M365,254.68l-.46-.25.15-.19.46.25a1.25,1.25,0,0,0-.15.19" transform="translate(-138.5 -51.17)"/><path class="cls-8" d="M365.12,254.49l-.46-.25.11-.11.07-.07.46.25-.08.07-.1.11" transform="translate(-138.5 -51.17)"/><path class="cls-14" d="M365.3,254.31l-.46-.25a2.43,2.43,0,0,1,.25-.2l.46.25a2.43,2.43,0,0,0-.25.2" transform="translate(-138.5 -51.17)"/><path class="cls-15" d="M365.55,254.11l-.46-.25a3,3,0,0,1,.39-.22l.46.24a2.5,2.5,0,0,0-.39.23" transform="translate(-138.5 -51.17)"/><path class="cls-16" d="M365.94,253.88l-.46-.24a2.62,2.62,0,0,1,.78-.24l.46.25a2.82,2.82,0,0,0-.78.23" transform="translate(-138.5 -51.17)"/></g></g></g><g class="cls-5"><g class="cls-31"><g class="cls-5"><path class="cls-12" d="M364.91,257.6l-.45-.25-.25-.15a2.11,2.11,0,0,1-.9-1.74,2.58,2.58,0,0,1,.16-.87l.46.25a2.58,2.58,0,0,0-.16.87,2.09,2.09,0,0,0,.9,1.74l.24.15" transform="translate(-138.5 -51.17)"/><path class="cls-11" d="M363.93,254.84l-.46-.25a2.37,2.37,0,0,1,.17-.36l.45.24a3,3,0,0,0-.16.37" transform="translate(-138.5 -51.17)"/><path class="cls-10" d="M364.09,254.47l-.45-.24a3.21,3.21,0,0,1,.19-.31l.46.24-.2.31" transform="translate(-138.5 -51.17)"/><path class="cls-9" d="M364.29,254.16l-.46-.24a3.15,3.15,0,0,1,.22-.29l.46.25a1.93,1.93,0,0,0-.22.28" transform="translate(-138.5 -51.17)"/><path class="cls-8" d="M364.51,253.88l-.46-.25.17-.18a.69.69,0,0,1,.13-.11l.45.24-.12.12-.17.18" transform="translate(-138.5 -51.17)"/><path class="cls-14" d="M364.8,253.58l-.45-.24a2.54,2.54,0,0,1,.36-.29l.45.25-.36.28" transform="translate(-138.5 -51.17)"/><path class="cls-15" d="M365.16,253.3l-.45-.25a4.4,4.4,0,0,1,.52-.3l.45.25a5.39,5.39,0,0,0-.52.3" transform="translate(-138.5 -51.17)"/><path class="cls-16" d="M365.68,253l-.45-.25a3.59,3.59,0,0,1,1-.31,3,3,0,0,1,1.21.06l.46.25a3.08,3.08,0,0,0-1.22-.06,3.78,3.78,0,0,0-1,.31" transform="translate(-138.5 -51.17)"/><path class="cls-15" d="M367.94,252.75l-.46-.25a3.68,3.68,0,0,1,.5.18l.45.25a2.05,2.05,0,0,0-.49-.18" transform="translate(-138.5 -51.17)"/><path class="cls-14" d="M368.43,252.93l-.45-.25.08,0,.46.25-.09,0" transform="translate(-138.5 -51.17)"/></g></g></g><path class="cls-21" d="M368.76,253.13a2,2,0,0,1,.9,1.75,2.82,2.82,0,0,1-.9,2,3.61,3.61,0,0,1-2.05,1,2.83,2.83,0,0,1-2-.44,2.09,2.09,0,0,1-.9-1.74,2.88,2.88,0,0,1,.91-2,3.67,3.67,0,0,1,2-1A2.81,2.81,0,0,1,368.76,253.13Zm-.55,3.07a1.78,1.78,0,0,0,.57-1.2,1.28,1.28,0,0,0-.56-1,2.07,2.07,0,0,0-1.5-.31,2.73,2.73,0,0,0-1.5.73,1.72,1.72,0,0,0-.56,1.2,1.25,1.25,0,0,0,.56,1,2.09,2.09,0,0,0,1.49.31,2.76,2.76,0,0,0,1.5-.73" transform="translate(-138.5 -51.17)"/><path class="cls-21" d="M366.72,253.65a2.07,2.07,0,0,1,1.5.31,1.28,1.28,0,0,1,.56,1l.44-.06-.44.06a1.78,1.78,0,0,1-.57,1.2,2.76,2.76,0,0,1-1.5.73,2.09,2.09,0,0,1-1.49-.31,1.25,1.25,0,0,1-.56-1,1.72,1.72,0,0,1,.56-1.2A2.73,2.73,0,0,1,366.72,253.65Z" transform="translate(-138.5 -51.17)"/></g><g class="cls-5"><polygon class="cls-6" points="227.39 195.79 226.94 195.54 227.38 195.48 227.83 195.73 227.39 195.79"/><g class="cls-5"><g class="cls-32"><g class="cls-5"><path class="cls-8" d="M365.13,248.57l-.45-.25.13-.15.46.25-.14.15" transform="translate(-138.5 -51.17)"/><path class="cls-9" d="M365.27,248.42l-.46-.25a1.71,1.71,0,0,0,.21-.26l.45.25a2.56,2.56,0,0,1-.2.26" transform="translate(-138.5 -51.17)"/><path class="cls-10" d="M365.47,248.16l-.45-.25a2.26,2.26,0,0,0,.16-.26l.45.25a1.4,1.4,0,0,1-.16.26" transform="translate(-138.5 -51.17)"/><path class="cls-11" d="M365.63,247.9l-.45-.25a1.51,1.51,0,0,0,.13-.29l.46.25a1.92,1.92,0,0,1-.14.29" transform="translate(-138.5 -51.17)"/><path class="cls-12" d="M365.77,247.61l-.46-.25a1.87,1.87,0,0,0,.12-.65,1.71,1.71,0,0,0-.75-1.4,1.37,1.37,0,0,0-.2-.13l.45.25.21.13a1.68,1.68,0,0,1,.75,1.4,1.91,1.91,0,0,1-.12.65" transform="translate(-138.5 -51.17)"/></g></g></g><g class="cls-5"><g class="cls-33"><g class="cls-5"><path class="cls-14" d="M361.44,249.24,361,249l.08,0,.46.25-.08,0" transform="translate(-138.5 -51.17)"/><path class="cls-15" d="M361.52,249.29l-.46-.25a2.64,2.64,0,0,0,.47.17l.46.25a2.87,2.87,0,0,1-.47-.17" transform="translate(-138.5 -51.17)"/><path class="cls-16" d="M362,249.46l-.46-.25a3.11,3.11,0,0,0,1.19.06,3.61,3.61,0,0,0,1-.31l.45.25a3.78,3.78,0,0,1-1,.31,3.1,3.1,0,0,1-1.19-.06" transform="translate(-138.5 -51.17)"/><path class="cls-15" d="M364.2,249.21l-.45-.25a3.6,3.6,0,0,0,.5-.29l.45.25a3.45,3.45,0,0,1-.5.29" transform="translate(-138.5 -51.17)"/><path class="cls-14" d="M364.7,248.92l-.45-.25a2.91,2.91,0,0,0,.33-.26l.45.25a2.91,2.91,0,0,1-.33.26" transform="translate(-138.5 -51.17)"/><path class="cls-8" d="M365,248.66l-.45-.25.1-.09.45.25-.1.09" transform="translate(-138.5 -51.17)"/></g></g></g><g class="cls-5"><g class="cls-34"><g class="cls-5"><path class="cls-12" d="M361.44,249.24,361,249l-.2-.13a1.66,1.66,0,0,1-.75-1.4,1.92,1.92,0,0,1,.12-.66l.45.25a1.88,1.88,0,0,0-.12.66,1.65,1.65,0,0,0,.75,1.39l.21.13" transform="translate(-138.5 -51.17)"/></g></g></g><g class="cls-5"><g class="cls-35"><g class="cls-5"><path class="cls-16" d="M363.18,245.16l-.45-.25a3,3,0,0,1,1.2.06l.45.25a3,3,0,0,0-1.2-.06" transform="translate(-138.5 -51.17)"/><path class="cls-15" d="M364.38,245.22l-.45-.25a2.64,2.64,0,0,1,.47.17l.45.25a2.17,2.17,0,0,0-.47-.17" transform="translate(-138.5 -51.17)"/><path class="cls-14" d="M364.85,245.39l-.45-.25.08,0,.45.25-.08,0" transform="translate(-138.5 -51.17)"/></g></g></g><g class="cls-5"><g class="cls-36"><g class="cls-5"><path class="cls-12" d="M361.44,249.24,361,249l-.2-.13a1.66,1.66,0,0,1-.75-1.4,1.92,1.92,0,0,1,.12-.66l.45.25a1.88,1.88,0,0,0-.12.66,1.65,1.65,0,0,0,.75,1.39l.21.13" transform="translate(-138.5 -51.17)"/></g></g></g><path class="cls-21" d="M363.18,245.16a2.74,2.74,0,0,1,2,.4,1.68,1.68,0,0,1,.75,1.4l.44-.07-.44.07a2.36,2.36,0,0,1-.76,1.61,3.56,3.56,0,0,1-1.95,1,2.77,2.77,0,0,1-1.95-.41,1.65,1.65,0,0,1-.75-1.39,2.28,2.28,0,0,1,.76-1.61A3.46,3.46,0,0,1,363.18,245.16Z" transform="translate(-138.5 -51.17)"/><g class="cls-5"><g class="cls-37"><g class="cls-5"><path class="cls-12" d="M361.44,249.24,361,249l-.2-.13a1.66,1.66,0,0,1-.75-1.4,1.92,1.92,0,0,1,.12-.66l.45.25a1.88,1.88,0,0,0-.12.66,1.65,1.65,0,0,0,.75,1.39l.21.13" transform="translate(-138.5 -51.17)"/><path class="cls-11" d="M360.6,247.06l-.45-.25a1.85,1.85,0,0,1,.13-.29l.45.25a2.55,2.55,0,0,0-.13.29" transform="translate(-138.5 -51.17)"/><path class="cls-10" d="M360.73,246.77l-.45-.25c0-.09.1-.17.15-.26l.46.25-.16.26" transform="translate(-138.5 -51.17)"/><path class="cls-9" d="M360.89,246.51l-.46-.25.2-.25.46.25-.2.25" transform="translate(-138.5 -51.17)"/><path class="cls-8" d="M361.09,246.26l-.46-.25.15-.15.1-.1.46.25a.47.47,0,0,0-.1.1l-.15.15" transform="translate(-138.5 -51.17)"/><path class="cls-14" d="M361.34,246l-.46-.25a4.19,4.19,0,0,1,.33-.26l.46.25a2.91,2.91,0,0,0-.33.26" transform="translate(-138.5 -51.17)"/><path class="cls-15" d="M361.67,245.75l-.46-.25a5,5,0,0,1,.5-.29l.46.25a3.45,3.45,0,0,0-.5.29" transform="translate(-138.5 -51.17)"/><path class="cls-16" d="M362.17,245.46l-.46-.25a3.77,3.77,0,0,1,1-.3l.45.25a3.38,3.38,0,0,0-1,.3" transform="translate(-138.5 -51.17)"/></g></g></g><g class="cls-5"><g class="cls-38"><g class="cls-5"><path class="cls-12" d="M361,250.13l-.45-.25a2.16,2.16,0,0,1-.3-.18,2.51,2.51,0,0,1-1.08-2.11,2.82,2.82,0,0,1,.19-1l.45.25a3,3,0,0,0-.19,1,2.49,2.49,0,0,0,1.09,2.1,2.9,2.9,0,0,0,.29.19" transform="translate(-138.5 -51.17)"/><path class="cls-11" d="M359.78,246.8l-.45-.25a2.48,2.48,0,0,1,.2-.44l.45.25c-.07.14-.14.29-.2.44" transform="translate(-138.5 -51.17)"/><path class="cls-10" d="M360,246.36l-.45-.25a2.77,2.77,0,0,1,.22-.37l.46.25c-.08.12-.16.24-.23.37" transform="translate(-138.5 -51.17)"/><path class="cls-9" d="M360.21,246l-.46-.25c.09-.12.17-.23.27-.34l.45.25c-.09.11-.18.22-.26.34" transform="translate(-138.5 -51.17)"/><path class="cls-8" d="M360.47,245.65l-.45-.25.21-.22.14-.13.45.25-.13.13-.22.22" transform="translate(-138.5 -51.17)"/><path class="cls-14" d="M360.82,245.3l-.45-.25.44-.35.46.25a5.37,5.37,0,0,0-.45.35" transform="translate(-138.5 -51.17)"/><path class="cls-15" d="M361.27,245l-.46-.25a4.56,4.56,0,0,1,.65-.37l.45.25a5.07,5.07,0,0,0-.64.37" transform="translate(-138.5 -51.17)"/><path class="cls-16" d="M361.91,244.58l-.45-.25a4.16,4.16,0,0,1,1.27-.38,3.93,3.93,0,0,1,1.5.07l.45.25a3.69,3.69,0,0,0-1.49-.07,4.31,4.31,0,0,0-1.28.38" transform="translate(-138.5 -51.17)"/><path class="cls-15" d="M364.68,244.27l-.45-.25a3.47,3.47,0,0,1,.61.23l.45.25a3,3,0,0,0-.61-.23" transform="translate(-138.5 -51.17)"/><path class="cls-14" d="M365.29,244.5l-.45-.25.1.06.46.24-.11-.05" transform="translate(-138.5 -51.17)"/></g></g></g><path class="cls-21" d="M365.68,244.73a2.49,2.49,0,0,1,1.1,2.1,3.46,3.46,0,0,1-1.1,2.41,4.37,4.37,0,0,1-2.51,1.23,3.38,3.38,0,0,1-2.49-.53,2.49,2.49,0,0,1-1.09-2.1,3.42,3.42,0,0,1,1.1-2.41,4.43,4.43,0,0,1,2.5-1.23A3.43,3.43,0,0,1,365.68,244.73Zm-.55,3.84a2.36,2.36,0,0,0,.76-1.61,1.68,1.68,0,0,0-.75-1.4,2.74,2.74,0,0,0-2-.4,3.46,3.46,0,0,0-1.94,1,2.28,2.28,0,0,0-.76,1.61,1.65,1.65,0,0,0,.75,1.39,2.77,2.77,0,0,0,1.95.41,3.56,3.56,0,0,0,1.95-1" transform="translate(-138.5 -51.17)"/></g><g class="cls-5"><polygon class="cls-6" points="224.78 186.81 224.32 186.57 224.77 186.5 225.22 186.75 224.78 186.81"/><g class="cls-5"><g class="cls-39"><g class="cls-5"><path class="cls-8" d="M362.39,239.88l-.45-.25.15-.17.46.25-.16.17" transform="translate(-138.5 -51.17)"/><path class="cls-9" d="M362.55,239.71l-.46-.25a1.76,1.76,0,0,0,.24-.3l.46.25c-.08.1-.15.2-.24.3" transform="translate(-138.5 -51.17)"/><path class="cls-10" d="M362.79,239.41l-.46-.25c.07-.1.13-.2.19-.3l.46.24a3.21,3.21,0,0,1-.19.31" transform="translate(-138.5 -51.17)"/><path class="cls-11" d="M363,239.1l-.46-.24c.06-.12.11-.23.16-.35l.45.25a2.52,2.52,0,0,1-.15.34" transform="translate(-138.5 -51.17)"/><path class="cls-12" d="M363.13,238.76l-.45-.25a2.33,2.33,0,0,0,.14-.78,2,2,0,0,0-.88-1.64l-.25-.16.45.25a2.2,2.2,0,0,1,.26.15,2,2,0,0,1,.88,1.65,2.16,2.16,0,0,1-.15.78" transform="translate(-138.5 -51.17)"/></g></g></g><g class="cls-5"><g class="cls-40"><g class="cls-5"><path class="cls-14" d="M358.09,240.67l-.45-.25.09.05.46.25-.1-.05" transform="translate(-138.5 -51.17)"/><path class="cls-15" d="M358.19,240.72l-.46-.25a3,3,0,0,0,.55.2l.45.25a3.16,3.16,0,0,1-.54-.2" transform="translate(-138.5 -51.17)"/><path class="cls-16" d="M358.73,240.92l-.45-.25a3.48,3.48,0,0,0,1.38.07,4.32,4.32,0,0,0,1.19-.36l.45.25a4.16,4.16,0,0,1-1.18.36,3.54,3.54,0,0,1-1.39-.07" transform="translate(-138.5 -51.17)"/><path class="cls-15" d="M361.3,240.63l-.45-.25a4.19,4.19,0,0,0,.58-.34l.46.25a3.78,3.78,0,0,1-.59.34" transform="translate(-138.5 -51.17)"/><path class="cls-14" d="M361.89,240.29l-.46-.25a3.9,3.9,0,0,0,.4-.31l.45.25a3,3,0,0,1-.39.31" transform="translate(-138.5 -51.17)"/><path class="cls-8" d="M362.28,240l-.45-.25.11-.1.45.25-.11.1" transform="translate(-138.5 -51.17)"/></g></g></g><g class="cls-5"><g class="cls-41"><g class="cls-5"><path class="cls-16" d="M360.16,235.86l-.45-.25a3.48,3.48,0,0,1,1.34.07l.46.25a3.34,3.34,0,0,0-1.35-.07" transform="translate(-138.5 -51.17)"/><path class="cls-15" d="M361.51,235.93l-.46-.25a2.63,2.63,0,0,1,.54.2l.46.25a2.49,2.49,0,0,0-.54-.2" transform="translate(-138.5 -51.17)"/><path class="cls-14" d="M362.05,236.13l-.46-.25.1.05.45.25-.09-.05" transform="translate(-138.5 -51.17)"/></g></g></g><g class="cls-5"><g class="cls-42"><g class="cls-5"><path class="cls-12" d="M358.09,240.67l-.45-.25-.25-.15a2,2,0,0,1-.87-1.65,2.39,2.39,0,0,1,.14-.79l.46.25a2.17,2.17,0,0,0-.15.79,2,2,0,0,0,.88,1.65l.24.15" transform="translate(-138.5 -51.17)"/><path class="cls-11" d="M357.12,238.08l-.46-.25a2.52,2.52,0,0,1,.15-.34l.46.25a2.07,2.07,0,0,0-.15.34" transform="translate(-138.5 -51.17)"/><path class="cls-10" d="M357.27,237.74l-.46-.25a2.9,2.9,0,0,1,.19-.29l.45.25a1.75,1.75,0,0,0-.18.29" transform="translate(-138.5 -51.17)"/><path class="cls-9" d="M357.45,237.45l-.45-.25a1.93,1.93,0,0,1,.22-.28l.45.24-.22.29" transform="translate(-138.5 -51.17)"/><path class="cls-8" d="M357.67,237.16l-.45-.24.18-.2.14-.13.46.25-.14.13-.19.19" transform="translate(-138.5 -51.17)"/><path class="cls-14" d="M358,236.84l-.46-.25a3.8,3.8,0,0,1,.38-.29l.45.24c-.13.1-.26.2-.37.3" transform="translate(-138.5 -51.17)"/><path class="cls-15" d="M358.37,236.54l-.45-.24a2.66,2.66,0,0,1,.57-.33l.45.25a4,4,0,0,0-.57.32" transform="translate(-138.5 -51.17)"/><path class="cls-16" d="M358.94,236.22l-.45-.25a4,4,0,0,1,1.14-.35l.46.25a4,4,0,0,0-1.15.35" transform="translate(-138.5 -51.17)"/></g></g></g><g class="cls-5"><g class="cls-43"><g class="cls-5"><path class="cls-16" d="M360.09,235.87l-.46-.25h0l.46.25h0" transform="translate(-138.5 -51.17)"/></g></g></g><g class="cls-5"><g class="cls-44"><g class="cls-5"><path class="cls-16" d="M360.13,235.87l-.46-.25h0l.45.25h0" transform="translate(-138.5 -51.17)"/></g></g></g><g class="cls-5"><g class="cls-45"><g class="cls-5"><path class="cls-12" d="M357.63,241.55l-.46-.25-.32-.2a2.8,2.8,0,0,1-1.22-2.35,3.26,3.26,0,0,1,.21-1.16l.46.25a3.26,3.26,0,0,0-.22,1.15,2.83,2.83,0,0,0,1.22,2.36l.33.2" transform="translate(-138.5 -51.17)"/><path class="cls-11" d="M356.3,237.84l-.46-.25a3.22,3.22,0,0,1,.23-.5l.45.25a3.16,3.16,0,0,0-.22.5" transform="translate(-138.5 -51.17)"/><path class="cls-10" d="M356.52,237.34l-.45-.25a2.26,2.26,0,0,1,.26-.42l.45.24c-.09.14-.18.28-.26.43" transform="translate(-138.5 -51.17)"/><path class="cls-9" d="M356.78,236.91l-.45-.24a2.87,2.87,0,0,1,.31-.4l.45.25-.31.39" transform="translate(-138.5 -51.17)"/><path class="cls-8" d="M357.09,236.52l-.45-.25.22-.23.15-.15.46.25-.16.15-.22.23" transform="translate(-138.5 -51.17)"/><path class="cls-14" d="M357.47,236.14l-.46-.25a6.12,6.12,0,0,1,.5-.39l.46.25a4.78,4.78,0,0,0-.5.39" transform="translate(-138.5 -51.17)"/><path class="cls-15" d="M358,235.75l-.46-.25a5.3,5.3,0,0,1,.73-.42l.45.25a5.2,5.2,0,0,0-.72.42" transform="translate(-138.5 -51.17)"/><path class="cls-16" d="M358.69,235.33l-.45-.25a5,5,0,0,1,1.43-.43,4.5,4.5,0,0,1,1.69.08l.46.25a4.31,4.31,0,0,0-1.69-.08,5.1,5.1,0,0,0-1.44.43" transform="translate(-138.5 -51.17)"/><path class="cls-15" d="M361.82,235l-.46-.25a3.68,3.68,0,0,1,.68.26l.46.24a3.66,3.66,0,0,0-.68-.25" transform="translate(-138.5 -51.17)"/><path class="cls-14" d="M362.5,235.23,362,235l.13.06.45.25-.12-.07" transform="translate(-138.5 -51.17)"/></g></g></g><path class="cls-21" d="M362.94,235.5a2.84,2.84,0,0,1,1.23,2.36,3.89,3.89,0,0,1-1.23,2.69,5.11,5.11,0,0,1-2.83,1.4,3.92,3.92,0,0,1-2.81-.6,2.83,2.83,0,0,1-1.22-2.36,3.93,3.93,0,0,1,1.23-2.7,5,5,0,0,1,2.82-1.39A3.89,3.89,0,0,1,362.94,235.5Zm-.55,4.38a2.75,2.75,0,0,0,.89-1.9,2,2,0,0,0-.88-1.65,3.17,3.17,0,0,0-2.24-.47h-.07a4,4,0,0,0-2.23,1.1,2.69,2.69,0,0,0-.89,1.9,2,2,0,0,0,.88,1.65,3.24,3.24,0,0,0,2.27.47,4.17,4.17,0,0,0,2.27-1.11" transform="translate(-138.5 -51.17)"/><path class="cls-21" d="M360.16,235.86a3.17,3.17,0,0,1,2.24.47,2,2,0,0,1,.88,1.65l.44-.06-.44.06a2.75,2.75,0,0,1-.89,1.9,4.17,4.17,0,0,1-2.27,1.11,3.24,3.24,0,0,1-2.27-.47,2,2,0,0,1-.88-1.65,2.69,2.69,0,0,1,.89-1.9,4,4,0,0,1,2.23-1.1h.07Z" transform="translate(-138.5 -51.17)"/></g><g class="cls-5"><polygon class="cls-6" points="223.12 176.9 222.66 176.66 223.1 176.59 223.56 176.84 223.12 176.9"/><g class="cls-5"><g class="cls-46"><g class="cls-5"><path class="cls-8" d="M360.46,230.56l-.46-.25a2.39,2.39,0,0,0,.22-.23l.45.25-.21.23" transform="translate(-138.5 -51.17)"/><path class="cls-9" d="M360.67,230.33l-.45-.25a3.57,3.57,0,0,0,.3-.38l.45.25a3.57,3.57,0,0,1-.3.38" transform="translate(-138.5 -51.17)"/><path class="cls-10" d="M361,230l-.45-.25a3.26,3.26,0,0,0,.24-.4l.46.25a2.42,2.42,0,0,1-.25.4" transform="translate(-138.5 -51.17)"/><path class="cls-11" d="M361.22,229.55l-.46-.25a4.54,4.54,0,0,0,.21-.45l.46.25a4.54,4.54,0,0,1-.21.45" transform="translate(-138.5 -51.17)"/><path class="cls-12" d="M361.43,229.1l-.46-.25a3.07,3.07,0,0,0,.19-1,2.59,2.59,0,0,0-1.15-2.15,2.66,2.66,0,0,0-.33-.21l.46.25.33.21a2.61,2.61,0,0,1,1.15,2.15,3.35,3.35,0,0,1-.19,1" transform="translate(-138.5 -51.17)"/></g></g></g><g class="cls-5"><g class="cls-47"><g class="cls-5"><path class="cls-14" d="M354.94,231.57l-.46-.25.12.07.46.24-.12-.06" transform="translate(-138.5 -51.17)"/><path class="cls-15" d="M355.06,231.63l-.46-.24a5,5,0,0,0,.71.26l.45.24a3.25,3.25,0,0,1-.7-.26" transform="translate(-138.5 -51.17)"/><path class="cls-16" d="M355.76,231.89l-.45-.24a4.69,4.69,0,0,0,1.77.08,5.15,5.15,0,0,0,1.52-.45l.46.25a5.46,5.46,0,0,1-1.52.45,4.55,4.55,0,0,1-1.78-.09" transform="translate(-138.5 -51.17)"/><path class="cls-15" d="M359.06,231.53l-.46-.25a5.43,5.43,0,0,0,.75-.43l.46.24a5.66,5.66,0,0,1-.75.44" transform="translate(-138.5 -51.17)"/><path class="cls-14" d="M359.81,231.09l-.46-.24a5.15,5.15,0,0,0,.5-.4l.46.25a4.78,4.78,0,0,1-.5.39" transform="translate(-138.5 -51.17)"/><path class="cls-8" d="M360.31,230.7l-.46-.25.15-.14.46.25-.15.14" transform="translate(-138.5 -51.17)"/></g></g></g><g class="cls-5"><g class="cls-48"><g class="cls-5"><path class="cls-12" d="M354.94,231.57l-.46-.25-.31-.19A2.58,2.58,0,0,1,353,229a3.07,3.07,0,0,1,.19-1l.45.25a3,3,0,0,0-.18,1,2.56,2.56,0,0,0,1.15,2.17,2.32,2.32,0,0,0,.31.19" transform="translate(-138.5 -51.17)"/></g></g></g><g class="cls-5"><g class="cls-49"><g class="cls-5"><path class="cls-16" d="M357.55,225.31l-.45-.25a4.45,4.45,0,0,1,1.76.08l.46.25a4.49,4.49,0,0,0-1.77-.08" transform="translate(-138.5 -51.17)"/><path class="cls-15" d="M359.32,225.39l-.46-.25a3.89,3.89,0,0,1,.7.26l.46.25a3.89,3.89,0,0,0-.7-.26" transform="translate(-138.5 -51.17)"/><path class="cls-14" d="M360,225.65l-.46-.25.12.06.46.25-.12-.06" transform="translate(-138.5 -51.17)"/></g></g></g><g class="cls-5"><g class="cls-50"><g class="cls-5"><path class="cls-12" d="M354.94,231.57l-.46-.25-.31-.19A2.58,2.58,0,0,1,353,229a3.07,3.07,0,0,1,.19-1l.45.25a3,3,0,0,0-.18,1,2.56,2.56,0,0,0,1.15,2.17,2.32,2.32,0,0,0,.31.19" transform="translate(-138.5 -51.17)"/></g></g></g><path class="cls-21" d="M357.55,225.31a4,4,0,0,1,2.92.61,2.61,2.61,0,0,1,1.15,2.15l.44-.06-.44.06a3.64,3.64,0,0,1-1.16,2.49,5.24,5.24,0,0,1-2.92,1.42,4.08,4.08,0,0,1-2.91-.6,2.56,2.56,0,0,1-1.15-2.17,3.52,3.52,0,0,1,1.15-2.47A5.18,5.18,0,0,1,357.55,225.31Z" transform="translate(-138.5 -51.17)"/><g class="cls-5"><g class="cls-51"><g class="cls-5"><path class="cls-12" d="M354.94,231.57l-.46-.25-.31-.19A2.58,2.58,0,0,1,353,229a3.07,3.07,0,0,1,.19-1l.45.25a3,3,0,0,0-.18,1,2.56,2.56,0,0,0,1.15,2.17,2.32,2.32,0,0,0,.31.19" transform="translate(-138.5 -51.17)"/><path class="cls-11" d="M353.66,228.19l-.45-.25a2.48,2.48,0,0,1,.2-.44l.46.24a4.54,4.54,0,0,0-.21.45" transform="translate(-138.5 -51.17)"/><path class="cls-10" d="M353.87,227.74l-.46-.24a2.55,2.55,0,0,1,.24-.39l.46.25a3,3,0,0,0-.24.38" transform="translate(-138.5 -51.17)"/><path class="cls-9" d="M354.11,227.36l-.46-.25a3.57,3.57,0,0,1,.3-.38l.46.25a3.57,3.57,0,0,0-.3.38" transform="translate(-138.5 -51.17)"/><path class="cls-8" d="M354.41,227l-.46-.25.23-.24a1.29,1.29,0,0,1,.17-.16l.45.25-.17.16a1.7,1.7,0,0,0-.22.24" transform="translate(-138.5 -51.17)"/><path class="cls-14" d="M354.8,226.58l-.45-.25a4.66,4.66,0,0,1,.49-.39l.46.25a4.78,4.78,0,0,0-.5.39" transform="translate(-138.5 -51.17)"/><path class="cls-15" d="M355.3,226.19l-.46-.25a4.57,4.57,0,0,1,.75-.43l.45.25a4.93,4.93,0,0,0-.74.43" transform="translate(-138.5 -51.17)"/><path class="cls-16" d="M356,225.76l-.45-.25a5,5,0,0,1,1.51-.45l.45.25a5.17,5.17,0,0,0-1.51.45" transform="translate(-138.5 -51.17)"/></g></g></g><path class="cls-21" d="M361,225.08A3.41,3.41,0,0,1,362.5,228a4.69,4.69,0,0,1-1.49,3.28,6.25,6.25,0,0,1-3.47,1.71,4.85,4.85,0,0,1-3.47-.73,3.47,3.47,0,0,1-1.48-2.87,4.71,4.71,0,0,1,1.49-3.29,6.24,6.24,0,0,1,3.47-1.7A4.8,4.8,0,0,1,361,225.08Zm-.56,5.48a3.64,3.64,0,0,0,1.16-2.49,2.61,2.61,0,0,0-1.15-2.15,4,4,0,0,0-2.92-.61,5.18,5.18,0,0,0-2.92,1.43,3.52,3.52,0,0,0-1.15,2.47,2.56,2.56,0,0,0,1.15,2.17,4.08,4.08,0,0,0,2.91.6,5.24,5.24,0,0,0,2.92-1.42" transform="translate(-138.5 -51.17)"/><g class="cls-5"><g class="cls-52"><g class="cls-5"><path class="cls-12" d="M354.46,232.45l-.46-.25a3,3,0,0,1-.38-.24,3.44,3.44,0,0,1-1.49-2.87,4,4,0,0,1,.26-1.4l.46.25a4,4,0,0,0-.26,1.4,3.47,3.47,0,0,0,1.48,2.87,3.14,3.14,0,0,0,.39.24" transform="translate(-138.5 -51.17)"/><path class="cls-11" d="M352.85,227.94l-.46-.25a6.65,6.65,0,0,1,.27-.61l.46.25a3.66,3.66,0,0,0-.27.61" transform="translate(-138.5 -51.17)"/><path class="cls-10" d="M353.12,227.33l-.46-.25c.1-.18.21-.35.32-.51l.46.24a4,4,0,0,0-.32.52" transform="translate(-138.5 -51.17)"/><path class="cls-9" d="M353.44,226.81l-.46-.24a4.45,4.45,0,0,1,.38-.48l.46.24a5.31,5.31,0,0,0-.38.48" transform="translate(-138.5 -51.17)"/><path class="cls-8" d="M353.82,226.33l-.46-.24.27-.29.18-.17.46.25-.19.17-.26.28" transform="translate(-138.5 -51.17)"/><path class="cls-14" d="M354.27,225.88l-.46-.25a7.42,7.42,0,0,1,.62-.49l.45.25a5.69,5.69,0,0,0-.61.49" transform="translate(-138.5 -51.17)"/><path class="cls-15" d="M354.88,225.39l-.45-.25a7.08,7.08,0,0,1,.89-.51l.46.25a6.55,6.55,0,0,0-.9.51" transform="translate(-138.5 -51.17)"/><path class="cls-16" d="M355.78,224.88l-.46-.25a6.22,6.22,0,0,1,1.78-.53,5.31,5.31,0,0,1,2.08.1l.46.25a5.18,5.18,0,0,0-2.09-.1,6,6,0,0,0-1.77.53" transform="translate(-138.5 -51.17)"/><path class="cls-15" d="M359.64,224.45l-.46-.25a4.78,4.78,0,0,1,.85.31l.45.25a4.41,4.41,0,0,0-.84-.31" transform="translate(-138.5 -51.17)"/><path class="cls-14" d="M360.48,224.76l-.45-.25.15.08.45.25-.15-.08" transform="translate(-138.5 -51.17)"/></g></g></g></g><g class="cls-5"><polygon class="cls-6" points="223.19 166.32 222.74 166.07 223.18 166.01 223.63 166.26 223.19 166.32"/><g class="cls-5"><g class="cls-53"><g class="cls-5"><path class="cls-8" d="M360.71,219.59l-.46-.25.2-.2.45.25-.19.2" transform="translate(-138.5 -51.17)"/><path class="cls-9" d="M360.9,219.39l-.45-.25a3.92,3.92,0,0,0,.25-.32l.45.25a3.49,3.49,0,0,1-.25.32" transform="translate(-138.5 -51.17)"/><path class="cls-10" d="M361.15,219.07l-.45-.25c.07-.11.14-.22.2-.33l.46.25a3,3,0,0,1-.21.33" transform="translate(-138.5 -51.17)"/><path class="cls-11" d="M361.36,218.74l-.46-.25a2.11,2.11,0,0,0,.17-.38l.46.25a3.17,3.17,0,0,1-.17.38" transform="translate(-138.5 -51.17)"/><path class="cls-12" d="M361.53,218.36l-.46-.25a2.39,2.39,0,0,0,.16-.87,2.18,2.18,0,0,0-1-1.81,2,2,0,0,0-.27-.17l.45.24.28.17a2.2,2.2,0,0,1,1,1.82,2.67,2.67,0,0,1-.16.87" transform="translate(-138.5 -51.17)"/></g></g></g><g class="cls-5"><g class="cls-54"><g class="cls-5"><path class="cls-14" d="M356,220.46l-.45-.25.1,0,.46.25-.11,0" transform="translate(-138.5 -51.17)"/><path class="cls-15" d="M356.1,220.51l-.46-.25a3.07,3.07,0,0,0,.6.22l.46.25a2.66,2.66,0,0,1-.6-.22" transform="translate(-138.5 -51.17)"/><path class="cls-16" d="M356.7,220.73l-.46-.25a4,4,0,0,0,1.52.08,4.67,4.67,0,0,0,1.3-.39l.46.25a5,5,0,0,1-1.3.39,4,4,0,0,1-1.52-.08" transform="translate(-138.5 -51.17)"/><path class="cls-15" d="M359.52,220.42l-.46-.25a4.45,4.45,0,0,0,.64-.37l.45.25a4.34,4.34,0,0,1-.63.37" transform="translate(-138.5 -51.17)"/><path class="cls-14" d="M360.15,220.05l-.45-.25a3.29,3.29,0,0,0,.41-.33l.46.25a3.39,3.39,0,0,1-.42.33" transform="translate(-138.5 -51.17)"/><path class="cls-8" d="M360.57,219.72l-.46-.25a.86.86,0,0,0,.14-.13l.46.25-.14.13" transform="translate(-138.5 -51.17)"/></g></g></g><g class="cls-5"><g class="cls-55"><g class="cls-5"><path class="cls-16" d="M358.23,215.16l-.46-.25a4,4,0,0,1,1.52.07l.46.25a3.83,3.83,0,0,0-1.52-.07" transform="translate(-138.5 -51.17)"/><path class="cls-15" d="M359.75,215.23l-.46-.25a3.43,3.43,0,0,1,.59.22l.46.25a3.43,3.43,0,0,0-.59-.22" transform="translate(-138.5 -51.17)"/><path class="cls-14" d="M360.34,215.45l-.46-.25.11.06.45.24-.1-.05" transform="translate(-138.5 -51.17)"/></g></g></g><g class="cls-5"><g class="cls-56"><g class="cls-5"><path class="cls-12" d="M356,220.46l-.45-.25a1.78,1.78,0,0,1-.27-.17,2.19,2.19,0,0,1-1-1.82,2.84,2.84,0,0,1,.16-.86l.46.24a2.66,2.66,0,0,0-.16.86,2.19,2.19,0,0,0,1,1.83l.26.17" transform="translate(-138.5 -51.17)"/></g></g></g><path class="cls-21" d="M358.23,215.16a3.47,3.47,0,0,1,2.49.51,2.2,2.2,0,0,1,1,1.82l.44-.06-.44.06a3,3,0,0,1-1,2.1,4.52,4.52,0,0,1-2.49,1.22,3.51,3.51,0,0,1-2.49-.52,2.19,2.19,0,0,1-1-1.83,3.06,3.06,0,0,1,1-2.09A4.54,4.54,0,0,1,358.23,215.16Z" transform="translate(-138.5 -51.17)"/><g class="cls-5"><g class="cls-57"><g class="cls-5"><path class="cls-12" d="M356,220.46l-.45-.25a1.78,1.78,0,0,1-.27-.17,2.19,2.19,0,0,1-1-1.82,2.84,2.84,0,0,1,.16-.86l.46.24a2.66,2.66,0,0,0-.16.86,2.19,2.19,0,0,0,1,1.83l.26.17" transform="translate(-138.5 -51.17)"/><path class="cls-11" d="M354.92,217.6l-.46-.24a3.39,3.39,0,0,1,.18-.39l.45.25a3.17,3.17,0,0,0-.17.38" transform="translate(-138.5 -51.17)"/><path class="cls-10" d="M355.09,217.22l-.45-.25c.06-.11.13-.22.2-.33l.46.25a3,3,0,0,0-.21.33" transform="translate(-138.5 -51.17)"/><path class="cls-9" d="M355.3,216.89l-.46-.25a4,4,0,0,1,.26-.32l.45.24-.25.33" transform="translate(-138.5 -51.17)"/><path class="cls-8" d="M355.55,216.56l-.45-.24.18-.19.13-.13.45.25-.13.12-.18.19" transform="translate(-138.5 -51.17)"/><path class="cls-14" d="M355.86,216.25l-.45-.25a3.39,3.39,0,0,1,.42-.33l.46.25a4.46,4.46,0,0,0-.43.33" transform="translate(-138.5 -51.17)"/><path class="cls-15" d="M356.29,215.92l-.46-.25a5.07,5.07,0,0,1,.64-.37l.46.25a3.68,3.68,0,0,0-.64.37" transform="translate(-138.5 -51.17)"/><path class="cls-16" d="M356.93,215.55l-.46-.25a4.67,4.67,0,0,1,1.3-.39l.46.25a4.36,4.36,0,0,0-1.3.39" transform="translate(-138.5 -51.17)"/></g></g></g><g class="cls-5"><g class="cls-58"><g class="cls-5"><path class="cls-12" d="M355.53,221.34l-.45-.25-.36-.22a3,3,0,0,1-1.3-2.53,3.31,3.31,0,0,1,.22-1.24l.46.25a3.54,3.54,0,0,0-.23,1.24,3,3,0,0,0,1.31,2.53c.11.08.23.15.35.22" transform="translate(-138.5 -51.17)"/><path class="cls-11" d="M354.1,217.35l-.46-.25a5.05,5.05,0,0,1,.24-.53l.46.25a2.79,2.79,0,0,0-.24.53" transform="translate(-138.5 -51.17)"/><path class="cls-10" d="M354.34,216.82l-.46-.25a4.21,4.21,0,0,1,.28-.45l.45.25a3.35,3.35,0,0,0-.27.45" transform="translate(-138.5 -51.17)"/><path class="cls-9" d="M354.61,216.37l-.45-.25a3.39,3.39,0,0,1,.33-.42l.45.25q-.17.2-.33.42" transform="translate(-138.5 -51.17)"/><path class="cls-8" d="M354.94,216l-.45-.25.24-.26.16-.15.46.25-.16.15a3.07,3.07,0,0,0-.25.26" transform="translate(-138.5 -51.17)"/><path class="cls-14" d="M355.35,215.54l-.46-.25a5.56,5.56,0,0,1,.54-.42l.46.25a5.56,5.56,0,0,0-.54.42" transform="translate(-138.5 -51.17)"/><path class="cls-15" d="M355.89,215.12l-.46-.25a5.62,5.62,0,0,1,.79-.46l.46.25a4.41,4.41,0,0,0-.79.46" transform="translate(-138.5 -51.17)"/><path class="cls-16" d="M356.68,214.66l-.46-.25a5.8,5.8,0,0,1,1.55-.47,4.79,4.79,0,0,1,1.83.1l.46.25a4.62,4.62,0,0,0-1.83-.1,5.37,5.37,0,0,0-1.55.47" transform="translate(-138.5 -51.17)"/><path class="cls-15" d="M360.06,214.29l-.46-.25a4.15,4.15,0,0,1,.75.27l.45.25a3.62,3.62,0,0,0-.74-.27" transform="translate(-138.5 -51.17)"/><path class="cls-14" d="M360.8,214.56l-.45-.25.13.07.46.25-.14-.07" transform="translate(-138.5 -51.17)"/></g></g></g><path class="cls-21" d="M361.27,214.84a3,3,0,0,1,1.31,2.53,4.13,4.13,0,0,1-1.32,2.89,5.36,5.36,0,0,1-3.05,1.5,4.17,4.17,0,0,1-3-.64,3,3,0,0,1-1.31-2.53,4.17,4.17,0,0,1,1.32-2.9,5.49,5.49,0,0,1,3-1.5A4.24,4.24,0,0,1,361.27,214.84Zm-.56,4.75a3,3,0,0,0,1-2.1,2.2,2.2,0,0,0-1-1.82,3.47,3.47,0,0,0-2.49-.51,4.54,4.54,0,0,0-2.5,1.21,3.06,3.06,0,0,0-1,2.09,2.19,2.19,0,0,0,1,1.83,3.51,3.51,0,0,0,2.49.52,4.52,4.52,0,0,0,2.49-1.22" transform="translate(-138.5 -51.17)"/></g><g class="cls-5"><g class="cls-5"><g class="cls-59"><g class="cls-5"><path class="cls-60" d="M375.12,160.55l-.91-.49a.66.66,0,0,1-.23-.21,28.9,28.9,0,0,0-8.82-7.66l.91.5a28.76,28.76,0,0,1,8.82,7.66.55.55,0,0,0,.23.2" transform="translate(-138.5 -51.17)"/></g></g></g><g class="cls-5"><g class="cls-61"><g class="cls-5"><path class="cls-62" d="M340.46,188.51l-.92-.5a1.13,1.13,0,0,0,.21-.12l.91.5a1.06,1.06,0,0,1-.2.12" transform="translate(-138.5 -51.17)"/><path class="cls-63" d="M340.66,188.39l-.91-.5.17-.13.91.5-.17.13" transform="translate(-138.5 -51.17)"/></g></g></g><g class="cls-5"><g class="cls-64"><g class="cls-5"><path class="cls-65" d="M353.54,148.16l-.92-.49a20.39,20.39,0,0,1,7,.37c.38.08.75.16,1.11.26l.91.5c-.36-.1-.73-.19-1.11-.26a20.3,20.3,0,0,0-7-.38" transform="translate(-138.5 -51.17)"/><path class="cls-62" d="M361.65,148.8l-.91-.5a23.84,23.84,0,0,1,4.49,1.67l.91.5a23.59,23.59,0,0,0-4.49-1.67" transform="translate(-138.5 -51.17)"/><path class="cls-63" d="M366.14,150.47l-.91-.5c.31.16.62.31.91.48l.91.49c-.29-.16-.6-.32-.91-.47" transform="translate(-138.5 -51.17)"/></g></g></g><g class="cls-5"><g class="cls-66"><g class="cls-5"><path class="cls-63" d="M340.83,188.26l-.91-.5.07,0,.91.49-.07.06" transform="translate(-138.5 -51.17)"/><path class="cls-67" d="M340.9,188.2l-.91-.49.29-.3.91.49a2.72,2.72,0,0,1-.29.3" transform="translate(-138.5 -51.17)"/><path class="cls-68" d="M341.19,187.9l-.91-.49.22-.27.91.49a2,2,0,0,1-.22.27" transform="translate(-138.5 -51.17)"/><path class="cls-69" d="M341.41,187.63l-.91-.49a3.21,3.21,0,0,0,.19-.31l.91.5c-.06.1-.12.2-.19.3" transform="translate(-138.5 -51.17)"/><path class="cls-70" d="M341.6,187.33l-.91-.5.18-.4,0-.05.91.49,0,0a2.54,2.54,0,0,1-.18.41" transform="translate(-138.5 -51.17)"/><path class="cls-60" d="M341.8,186.87l-.91-.49a5.5,5.5,0,0,0,.28-1.89,38.34,38.34,0,0,0-1.14-7,45.38,45.38,0,0,1-1.18-9.48,27.34,27.34,0,0,1,.67-6,30.1,30.1,0,0,1,1.06-3.67l.91.49a30.62,30.62,0,0,0-1.06,3.67,28,28,0,0,0-.67,6,45.38,45.38,0,0,0,1.18,9.48,38.08,38.08,0,0,1,1.14,7,5.44,5.44,0,0,1-.28,1.88" transform="translate(-138.5 -51.17)"/><path class="cls-70" d="M341.49,158.79l-.91-.49a21.88,21.88,0,0,1,1.15-2.6,1.74,1.74,0,0,1,.1-.19l.91.5a1.14,1.14,0,0,0-.1.19,21.08,21.08,0,0,0-1.15,2.59" transform="translate(-138.5 -51.17)"/><path class="cls-69" d="M342.74,156l-.91-.5a18,18,0,0,1,1.12-1.83l.91.5a17,17,0,0,0-1.12,1.83" transform="translate(-138.5 -51.17)"/><path class="cls-68" d="M343.86,154.18l-.91-.5a16.2,16.2,0,0,1,1.12-1.42l.91.5a16.2,16.2,0,0,0-1.12,1.42" transform="translate(-138.5 -51.17)"/><path class="cls-67" d="M345,152.76l-.91-.5a13.45,13.45,0,0,1,1.19-1.2l.91.5a13.47,13.47,0,0,0-1.19,1.2" transform="translate(-138.5 -51.17)"/><path class="cls-63" d="M346.17,151.56l-.91-.5a13.5,13.5,0,0,1,1.38-1.09l.91.49a13.58,13.58,0,0,0-1.38,1.1" transform="translate(-138.5 -51.17)"/><path class="cls-62" d="M347.55,150.46l-.91-.49a13.09,13.09,0,0,1,1.9-1.1l.91.5a14,14,0,0,0-1.9,1.09" transform="translate(-138.5 -51.17)"/><path class="cls-65" d="M349.45,149.37l-.91-.5.26-.12a14.14,14.14,0,0,1,3.82-1.08l.92.49a14.51,14.51,0,0,0-3.83,1.09l-.26.12" transform="translate(-138.5 -51.17)"/></g></g></g><g class="cls-5"><g class="cls-71"><g class="cls-5"><path class="cls-60" d="M310.31,240.09l-.91-.5A.73.73,0,0,1,309,239a95.65,95.65,0,0,1-.72-11.83,94,94,0,0,1,.66-10.92,96.47,96.47,0,0,1,1.72-11.07,23.29,23.29,0,0,1,.68-2.23l.91.5a22.45,22.45,0,0,0-.68,2.23,96.55,96.55,0,0,0-1.71,11.06,92.1,92.1,0,0,0-.67,10.93,97.47,97.47,0,0,0,.72,11.82.77.77,0,0,0,.38.6" transform="translate(-138.5 -51.17)"/><path class="cls-70" d="M312.27,203.45l-.91-.5a15.82,15.82,0,0,1,.94-2.09l.91.5a15.26,15.26,0,0,0-.94,2.09" transform="translate(-138.5 -51.17)"/><path class="cls-69" d="M313.21,201.36l-.91-.5a14.17,14.17,0,0,1,.86-1.4l.91.49a14.33,14.33,0,0,0-.86,1.41" transform="translate(-138.5 -51.17)"/><path class="cls-68" d="M314.07,200l-.91-.49a13.4,13.4,0,0,1,.94-1.2l.91.5a13.27,13.27,0,0,0-.94,1.19" transform="translate(-138.5 -51.17)"/><path class="cls-67" d="M315,198.76l-.91-.5.27-.29c.29-.32.6-.61.92-.9l.91.49c-.32.29-.63.59-.92.9l-.27.3" transform="translate(-138.5 -51.17)"/><path class="cls-63" d="M316.2,197.56l-.91-.49a15.47,15.47,0,0,1,1.73-1.36l.91.49a19.56,19.56,0,0,0-1.73,1.36" transform="translate(-138.5 -51.17)"/><path class="cls-62" d="M317.93,196.2l-.91-.49a24.41,24.41,0,0,1,3.51-2l.91.5a25.35,25.35,0,0,0-3.51,2" transform="translate(-138.5 -51.17)"/><path class="cls-65" d="M321.44,194.21l-.91-.5a42.48,42.48,0,0,1,4-1.6c3.95-1.39,8.2-2.36,11.84-3.26,1-.24,1.75-.4,2.25-.53a4.57,4.57,0,0,0,.91-.28l.91.5a5.37,5.37,0,0,1-.91.28l-2.25.53c-3.64.89-7.89,1.87-11.84,3.26a40.91,40.91,0,0,0-4,1.6" transform="translate(-138.5 -51.17)"/><path class="cls-62" d="M340.4,188.54l-.91-.5.05,0,.92.5-.06,0" transform="translate(-138.5 -51.17)"/></g></g></g><path class="cls-72" d="M353.54,148.16a20.3,20.3,0,0,1,7,.38c9,1.84,14.4,8.67,15.78,10.46a1.08,1.08,0,0,1-.19,1.38,1.1,1.1,0,0,1-.53.26.76.76,0,0,1-.71-.29c-1.29-1.69-6.55-8.21-14.9-9.9a18.85,18.85,0,0,0-6.46-.37,13,13,0,0,0-3.34.95,12.68,12.68,0,0,0-6,6,22.82,22.82,0,0,0-2,5.7,25.79,25.79,0,0,0-.62,5.55,43.91,43.91,0,0,0,1.14,9.07,40.6,40.6,0,0,1,1.18,7.43,7.49,7.49,0,0,1-.45,2.71,5.33,5.33,0,0,1-1.62,2.28,3.16,3.16,0,0,1-.76.51,3.48,3.48,0,0,1-.87.33c-.61.19-1.4.34-2.75.67-3.66.9-7.85,1.86-11.67,3.2s-7.22,3.07-9.3,5.31a13.38,13.38,0,0,0-3.13,6.21,92.83,92.83,0,0,0-1.66,10.78,89.78,89.78,0,0,0-.65,10.67,92.11,92.11,0,0,0,.7,11.58,1.11,1.11,0,0,1-.77,1.18.79.79,0,0,1-1-.68,97.47,97.47,0,0,1-.72-11.82,92.1,92.1,0,0,1,.67-10.93,96.55,96.55,0,0,1,1.71-11.06,15.73,15.73,0,0,1,3.69-7.22c2.51-2.69,6.18-4.46,10.12-5.85s8.2-2.37,11.84-3.26l2.25-.53a4.55,4.55,0,0,0,1-.31,2,2,0,0,0,.37-.25,3.16,3.16,0,0,0,.95-1.34,5.4,5.4,0,0,0,.3-1.93,38.08,38.08,0,0,0-1.14-7,45.38,45.38,0,0,1-1.18-9.48,28,28,0,0,1,.67-6,25.72,25.72,0,0,1,2.21-6.26,14.9,14.9,0,0,1,7.07-6.95A14.51,14.51,0,0,1,353.54,148.16Z" transform="translate(-138.5 -51.17)"/></g><g class="cls-5"><g class="cls-5"><g class="cls-73"><g class="cls-5"><path class="cls-16" d="M333,224.43l-.91-.5a.65.65,0,0,1,.31,0l.91.49a.8.8,0,0,0-.31,0" transform="translate(-138.5 -51.17)"/><path class="cls-15" d="M333.27,224.44l-.91-.49.14.05.92.49-.15-.05" transform="translate(-138.5 -51.17)"/><path class="cls-14" d="M333.42,224.49l-.92-.49h0l.91.5,0,0" transform="translate(-138.5 -51.17)"/></g></g></g><g class="cls-5"><g class="cls-74"><g class="cls-5"><path class="cls-12" d="M330,253.73l-.91-.5a.82.82,0,0,1-.41-.79c.08-1.5.23-3.92.66-6.88s.91-5,1.31-6.75a35.6,35.6,0,0,0,.93-5.41c.07-.74.12-1.64.12-2.66a31.28,31.28,0,0,0-.48-5.56,1,1,0,0,1,.06-.54l.91.49a1,1,0,0,0-.05.55,31.1,31.1,0,0,1,.47,5.56c0,1-.05,1.92-.11,2.66a36.52,36.52,0,0,1-.93,5.4c-.41,1.8-.89,3.84-1.31,6.76s-.59,5.38-.67,6.88a.85.85,0,0,0,.41.79" transform="translate(-138.5 -51.17)"/><path class="cls-11" d="M332.14,225.13l-.91-.49a1,1,0,0,1,.07-.15l.91.49a1,1,0,0,0-.07.15" transform="translate(-138.5 -51.17)"/><path class="cls-10" d="M332.21,225l-.91-.49a.75.75,0,0,1,.07-.12l.91.49a.75.75,0,0,0-.07.12" transform="translate(-138.5 -51.17)"/><path class="cls-9" d="M332.28,224.86l-.91-.49a.39.39,0,0,1,.08-.1l.91.49-.08.1" transform="translate(-138.5 -51.17)"/><path class="cls-8" d="M332.36,224.76l-.91-.49.09-.1.91.5-.09.09" transform="translate(-138.5 -51.17)"/><path class="cls-14" d="M332.45,224.67l-.91-.5.11-.08.91.5-.11.08" transform="translate(-138.5 -51.17)"/><path class="cls-15" d="M332.56,224.59l-.91-.5.14-.08.91.49a.67.67,0,0,0-.14.09" transform="translate(-138.5 -51.17)"/><path class="cls-16" d="M332.7,224.5l-.91-.49.1,0,.16,0,.91.5-.16,0-.1,0" transform="translate(-138.5 -51.17)"/></g></g></g><path class="cls-21" d="M333,224.43a.77.77,0,0,1,.88.66,34.14,34.14,0,0,1,.51,5.9c0,1.09-.06,2-.13,2.84a38,38,0,0,1-1,5.71c-.41,1.8-.87,3.73-1.27,6.56s-.58,5.24-.65,6.68a1.09,1.09,0,0,1-.88,1,.8.8,0,0,1-.9-.88c.08-1.5.24-3.93.67-6.88s.9-5,1.31-6.76a36.52,36.52,0,0,0,.93-5.4c.06-.74.11-1.64.11-2.66a31.1,31.1,0,0,0-.47-5.56,1.13,1.13,0,0,1,.71-1.22Z" transform="translate(-138.5 -51.17)"/></g><line class="cls-75" x1="276.07" y1="216.66" x2="97.85" y2="216.66"/><rect class="cls-76" x="136.63" y="236.82" width="122.8" height="18.94" rx="8"/><circle class="cls-77" cx="114.94" cy="246.29" r="8.47"/><path class="cls-77" d="M253.43,290a7.47,7.47,0,1,1-7.47,7.47,7.48,7.48,0,0,1,7.47-7.47m0-2a9.47,9.47,0,1,0,9.47,9.47,9.47,9.47,0,0,0-9.47-9.47Z" transform="translate(-138.5 -51.17)"/><path class="cls-77" d="M253.43,332.37a8.47,8.47,0,1,1,8.47-8.47A8.48,8.48,0,0,1,253.43,332.37Z" transform="translate(-138.5 -51.17)"/><path class="cls-77" d="M253.43,316.43A7.47,7.47,0,1,1,246,323.9a7.48,7.48,0,0,1,7.47-7.47m0-2a9.47,9.47,0,1,0,9.47,9.47,9.47,9.47,0,0,0-9.47-9.47Z" transform="translate(-138.5 -51.17)"/><line class="cls-78" x1="1" y1="1" x2="1" y2="1.61"/><rect class="cls-76" x="136.63" y="263.26" width="122.8" height="18.94" rx="8"/><path class="cls-79" d="M227.23,162.52" transform="translate(-138.5 -51.17)"/><path class="cls-80" d="M531.12,154.75" transform="translate(-138.5 -51.17)"/></g></g></svg>